<svg width="146" height="103" viewBox="0 0 146 103" fill="none" xmlns="http://www.w3.org/2000/svg">
<path d="M37.8184 -3.82001C26.8745 -3.82001 16.6894 -0.460317 9.17704 6.04645C1.60192 12.6076 -3.00164 22.1604 -3.00164 33.92H4.99836C4.99836 24.3996 8.6548 17.0824 14.4147 12.0935C20.2373 7.0503 28.4622 4.17999 37.8184 4.17999V-3.82001ZM-3.00164 33.92V68.36H4.99836V33.92H-3.00164ZM-3.00164 68.36C-3.00164 80.1837 1.59784 89.7413 9.18159 96.29C16.6993 102.782 26.8856 106.1 37.8184 106.1V98.1C28.4511 98.1 20.2274 95.2584 14.4101 90.235C8.65888 85.2687 4.99836 77.9563 4.99836 68.36H-3.00164ZM37.8184 106.1C48.6884 106.1 58.8092 102.777 66.2745 96.2797C73.8033 89.7269 78.3584 80.1717 78.3584 68.36H70.3584C70.3584 77.9683 66.7235 85.2831 61.0223 90.2453C55.2575 95.2628 47.1083 98.1 37.8184 98.1V106.1ZM78.3584 68.36V33.92H70.3584V68.36H78.3584ZM78.3584 33.92C78.3584 22.1724 73.7992 12.622 66.279 6.05673C58.8192 -0.455835 48.6995 -3.82001 37.8184 -3.82001V4.17999C47.0972 4.17999 55.2476 7.04582 61.0177 12.0833C66.7275 17.068 70.3584 24.3876 70.3584 33.92H78.3584ZM37.8184 75.7C34.7679 75.7 32.5676 74.8931 31.1952 73.7197C29.9131 72.6235 28.9384 70.8604 28.9384 67.94H20.9384C20.9384 72.8596 22.6937 76.9765 25.9965 79.8003C29.2091 82.5469 33.4488 83.7 37.8184 83.7V75.7ZM28.9384 67.94V34.48H20.9384V67.94H28.9384ZM28.9384 34.48C28.9384 31.4632 29.9327 29.6165 31.2347 28.4735C32.6122 27.2643 34.8008 26.44 37.8184 26.44V18.44C33.4159 18.44 29.1645 19.6457 25.957 22.4615C22.674 25.3435 20.9384 29.5168 20.9384 34.48H28.9384ZM37.8184 26.44C40.6639 26.44 42.8305 27.2476 44.227 28.4735C45.5494 29.6345 46.5584 31.4938 46.5584 34.48H54.5584C54.5584 29.4861 52.7673 25.3255 49.5047 22.4615C46.3163 19.6624 42.1128 18.44 37.8184 18.44V26.44ZM46.5584 34.48V67.94H54.5584V34.48H46.5584ZM46.5584 67.94C46.5584 70.8293 45.5698 72.6054 44.2665 73.7197C42.8755 74.9089 40.6975 75.7 37.8184 75.7V83.7C42.0793 83.7 46.2712 82.5311 49.4652 79.8003C52.7469 76.9946 54.5584 72.8907 54.5584 67.94H46.5584ZM105.36 22.02H109.36V18.02H105.36V22.02ZM105.36 80.4V84.4H109.36V80.4H105.36ZM90.0996 80.4V76.4H86.0996V80.4H90.0996ZM90.0996 100H86.0996V104H90.0996V100ZM145.54 100V104H149.54V100H145.54ZM145.54 80.4H149.54V76.4H145.54V80.4ZM129.86 80.4H125.86V84.4H129.86V80.4ZM129.86 1.99999H133.86V-2.00001H129.86V1.99999ZM92.0596 1.99999V-2.00001H88.0596V1.99999H92.0596ZM92.0596 22.02H88.0596V26.02H92.0596V22.02ZM101.36 22.02V80.4H109.36V22.02H101.36ZM105.36 76.4H90.0996V84.4H105.36V76.4ZM86.0996 80.4V100H94.0996V80.4H86.0996ZM90.0996 104H145.54V96H90.0996V104ZM149.54 100V80.4H141.54V100H149.54ZM145.54 76.4H129.86V84.4H145.54V76.4ZM133.86 80.4V1.99999H125.86V80.4H133.86ZM129.86 -2.00001H92.0596V5.99999H129.86V-2.00001ZM88.0596 1.99999V22.02H96.0596V1.99999H88.0596ZM92.0596 26.02H105.36V18.02H92.0596V26.02Z" fill="#F50000" fill-opacity="0.6"/>
</svg>
