<svg width="160" height="103" viewBox="0 0 160 103" fill="none" xmlns="http://www.w3.org/2000/svg">
<path d="M36.8242 -3.82001C25.8804 -3.82001 15.6953 -0.460317 8.1829 6.04645C0.607783 12.6076 -3.99578 22.1604 -3.99578 33.92H4.00422C4.00422 24.3996 7.66066 17.0824 13.4205 12.0935C19.2432 7.0503 27.4681 4.17999 36.8242 4.17999V-3.82001ZM-3.99578 33.92V68.36H4.00422V33.92H-3.99578ZM-3.99578 68.36C-3.99578 80.1837 0.603703 89.7413 8.18745 96.29C15.7052 102.782 25.8915 106.1 36.8242 106.1V98.1C27.457 98.1 19.2333 95.2584 13.416 90.235C7.66474 85.2687 4.00422 77.9563 4.00422 68.36H-3.99578ZM36.8242 106.1C47.6942 106.1 57.8151 102.777 65.2803 96.2797C72.8091 89.7269 77.3642 80.1717 77.3642 68.36H69.3642C69.3642 77.9683 65.7293 85.2831 60.0281 90.2453C54.2634 95.2628 46.1142 98.1 36.8242 98.1V106.1ZM77.3642 68.36V33.92H69.3642V68.36H77.3642ZM77.3642 33.92C77.3642 22.1724 72.8051 12.622 65.2849 6.05673C57.825 -0.455835 47.7054 -3.82001 36.8242 -3.82001V4.17999C46.103 4.17999 54.2534 7.04582 60.0236 12.0833C65.7334 17.068 69.3642 24.3876 69.3642 33.92H77.3642ZM36.8242 75.7C33.7737 75.7 31.5735 74.8931 30.2011 73.7197C28.9189 72.6235 27.9442 70.8604 27.9442 67.94H19.9442C19.9442 72.8596 21.6995 76.9765 25.0024 79.8003C28.215 82.5469 32.4547 83.7 36.8242 83.7V75.7ZM27.9442 67.94V34.48H19.9442V67.94H27.9442ZM27.9442 34.48C27.9442 31.4632 28.9386 29.6165 30.2406 28.4735C31.6181 27.2643 33.8067 26.44 36.8242 26.44V18.44C32.4217 18.44 28.1704 19.6457 24.9628 22.4615C21.6798 25.3435 19.9442 29.5168 19.9442 34.48H27.9442ZM36.8242 26.44C39.6697 26.44 41.8363 27.2476 43.2328 28.4735C44.5553 29.6345 45.5642 31.4938 45.5642 34.48H53.5642C53.5642 29.4861 51.7731 25.3255 48.5106 22.4615C45.3221 19.6624 41.1187 18.44 36.8242 18.44V26.44ZM45.5642 34.48V67.94H53.5642V34.48H45.5642ZM45.5642 67.94C45.5642 70.8293 44.5757 72.6054 43.2724 73.7197C41.8814 74.9089 39.7033 75.7 36.8242 75.7V83.7C41.0851 83.7 45.277 82.5311 48.4711 79.8003C51.7528 76.9946 53.5642 72.8907 53.5642 67.94H45.5642ZM119.345 23L119.494 19.0027L119.48 19.0022L119.467 19.0018L119.345 23ZM121.725 45.12L125.02 47.3881L125.037 47.3636L125.054 47.3388L121.725 45.12ZM87.7055 94.54L84.4107 92.2719L83.7055 93.2963V94.54H87.7055ZM87.7055 100H83.7055V104H87.7055V100ZM155.465 100V104H159.465V100H155.465ZM155.465 77.32H159.465V73.32H155.465V77.32ZM124.385 77.32L121.152 74.9652L116.524 81.32H124.385V77.32ZM143.425 50.44L140.118 48.1897L139.425 49.2081V50.44H143.425ZM88.8255 32.38L84.8263 32.4633L84.9079 36.38H88.8255V32.38ZM109.965 32.38V36.38H113.965V32.38H109.965ZM119.197 26.9973C121.371 27.0778 122.245 27.6639 122.589 28.0155C122.93 28.3628 123.302 29.0405 123.308 30.4541C123.321 33.4928 121.592 38.1089 118.397 42.9012L125.054 47.3388C128.579 42.0511 131.33 35.8171 131.308 30.4209C131.296 27.617 130.522 24.6809 128.303 22.4164C126.089 20.1561 122.99 19.1322 119.494 19.0027L119.197 26.9973ZM118.431 42.8519L84.4107 92.2719L91.0003 96.8081L125.02 47.3881L118.431 42.8519ZM83.7055 94.54V100H91.7055V94.54H83.7055ZM87.7055 104H155.465V96H87.7055V104ZM159.465 100V77.32H151.465V100H159.465ZM155.465 73.32H124.385V81.32H155.465V73.32ZM127.619 79.6748C136.999 66.7948 141.781 60.1148 144.222 56.6122C145.431 54.8773 146.112 53.8569 146.498 53.2272C146.692 52.9112 147.425 51.8339 147.425 50.44H139.425C139.425 49.1861 140.124 48.3188 139.679 49.044C139.427 49.4556 138.865 50.3077 137.659 52.0378C135.27 55.4652 130.532 62.0852 121.152 74.9652L127.619 79.6748ZM146.732 52.6903C155.464 39.8594 156.587 25.8626 151.381 14.866C146.154 3.82407 134.84 -3.54 120.185 -3.54V4.46C131.991 4.46 140.347 10.2559 144.15 18.289C147.974 26.3674 147.487 37.3606 140.118 48.1897L146.732 52.6903ZM120.185 -3.54C109.591 -3.54 100.529 -0.347864 94.165 6.03611C87.7902 12.4314 84.599 21.5535 84.8263 32.4633L92.8246 32.2967C92.6319 23.0465 95.3208 16.2086 99.8309 11.6839C104.352 7.14786 111.18 4.46 120.185 4.46V-3.54ZM88.8255 36.38H109.965V28.38H88.8255V36.38ZM113.965 32.38C113.965 30.1337 114.737 28.8952 115.551 28.1858C116.446 27.4055 117.763 26.9539 119.224 26.9982L119.467 19.0018C116.308 18.9061 112.935 19.8545 110.295 22.1541C107.574 24.5248 105.965 28.0463 105.965 32.38H113.965Z" fill="#F50000" fill-opacity="0.6"/>
</svg>
