<svg width="157" height="103" viewBox="0 0 157 103" fill="none" xmlns="http://www.w3.org/2000/svg">
<path d="M37.5 -3.82001C26.5562 -3.82001 16.371 -0.460317 8.85868 6.04645C1.28356 12.6076 -3.32 22.1604 -3.32 33.92H4.68C4.68 24.3996 8.33644 17.0824 14.0963 12.0935C19.919 7.0503 28.1438 4.17999 37.5 4.17999V-3.82001ZM-3.32 33.92V68.36H4.68V33.92H-3.32ZM-3.32 68.36C-3.32 80.1837 1.27948 89.7413 8.86323 96.29C16.3809 102.782 26.5673 106.1 37.5 106.1V98.1C28.1327 98.1 19.9091 95.2584 14.0918 90.235C8.34052 85.2687 4.68 77.9563 4.68 68.36H-3.32ZM37.5 106.1C48.37 106.1 58.4909 102.777 65.9561 96.2797C73.4849 89.7269 78.04 80.1717 78.04 68.36H70.04C70.04 77.9683 66.4051 85.2831 60.7039 90.2453C54.9391 95.2628 46.79 98.1 37.5 98.1V106.1ZM78.04 68.36V33.92H70.04V68.36H78.04ZM78.04 33.92C78.04 22.1724 73.4808 12.622 65.9606 6.05673C58.5008 -0.455835 48.3812 -3.82001 37.5 -3.82001V4.17999C46.7788 4.17999 54.9292 7.04582 60.6994 12.0833C66.4092 17.068 70.04 24.3876 70.04 33.92H78.04ZM37.5 75.7C34.4495 75.7 32.2493 74.8931 30.8768 73.7197C29.5947 72.6235 28.62 70.8604 28.62 67.94H20.62C20.62 72.8596 22.3753 76.9765 25.6782 79.8003C28.8908 82.5469 33.1305 83.7 37.5 83.7V75.7ZM28.62 67.94V34.48H20.62V67.94H28.62ZM28.62 34.48C28.62 31.4632 29.6144 29.6165 30.9164 28.4735C32.2938 27.2643 34.4825 26.44 37.5 26.44V18.44C33.0975 18.44 28.8462 19.6457 25.6386 22.4615C22.3556 25.3435 20.62 29.5168 20.62 34.48H28.62ZM37.5 26.44C40.3455 26.44 42.5121 27.2476 43.9086 28.4735C45.2311 29.6345 46.24 31.4938 46.24 34.48H54.24C54.24 29.4861 52.4489 25.3255 49.1864 22.4615C45.9979 19.6624 41.7945 18.44 37.5 18.44V26.44ZM46.24 34.48V67.94H54.24V34.48H46.24ZM46.24 67.94C46.24 70.8293 45.2515 72.6054 43.9482 73.7197C42.5572 74.9089 40.3791 75.7 37.5 75.7V83.7C41.7609 83.7 45.9528 82.5311 49.1468 79.8003C52.4285 76.9946 54.24 72.8907 54.24 67.94H46.24ZM88.5213 70.18V66.18H84.434L84.5222 70.2663L88.5213 70.18ZM136.821 38.68L133.305 36.7729L130.877 41.2496L135.802 42.5478L136.821 38.68ZM154.741 5.64L158.257 7.54705L158.741 6.65491V5.64H154.741ZM154.741 1.99999H158.741V-2.00001H154.741V1.99999ZM92.3013 1.99999V-2.00001H88.3013V1.99999H92.3013ZM92.3013 22.72H88.3013V26.72H92.3013V22.72ZM122.401 22.72L125.972 24.5227L128.902 18.72H122.401V22.72ZM107.841 51.56L104.271 49.7573L103.841 50.6075V51.56H107.841ZM107.841 54.78H103.841V59.1945L108.234 58.7606L107.841 54.78ZM132.761 68.08L136.76 68.1651L136.762 68.0665L136.76 67.9679L132.761 68.08ZM110.921 70.18H114.921V66.18H110.921V70.18ZM84.5222 70.2663C84.754 81.0063 88.8416 89.9822 95.7125 96.2522C102.553 102.495 111.89 105.82 122.261 105.82V97.82C113.593 97.82 106.269 95.0553 101.105 90.3428C95.9709 85.6578 92.7085 78.8137 92.5203 70.0937L84.5222 70.2663ZM122.261 105.82C147.499 105.82 160.841 86.444 160.841 67.94H152.841C152.841 82.756 142.384 97.82 122.261 97.82V105.82ZM160.841 67.94C160.841 61.1395 159.616 54.0582 156.05 48.0209C152.415 41.8662 146.521 37.1005 137.841 34.8122L135.802 42.5478C142.521 44.3195 146.637 47.8138 149.162 52.0891C151.756 56.4818 152.841 62.0005 152.841 67.94H160.841ZM140.337 40.587L158.257 7.54705L151.225 3.73294L133.305 36.7729L140.337 40.587ZM158.741 5.64V1.99999H150.741V5.64H158.741ZM154.741 -2.00001H92.3013V5.99999H154.741V-2.00001ZM88.3013 1.99999V22.72H96.3013V1.99999H88.3013ZM92.3013 26.72H122.401V18.72H92.3013V26.72ZM118.831 20.9173L104.271 49.7573L111.412 53.3627L125.972 24.5227L118.831 20.9173ZM103.841 51.56V54.78H111.841V51.56H103.841ZM108.234 58.7606C114.042 58.1871 119.307 57.9079 123.127 59.1858C124.901 59.7792 126.166 60.6523 127.042 61.8658C127.929 63.095 128.674 65.031 128.763 68.1921L136.76 67.9679C136.638 63.639 135.581 60.0275 133.528 57.1836C131.464 54.324 128.652 52.5983 125.665 51.5992C119.965 49.6921 112.981 50.2529 107.448 50.7994L108.234 58.7606ZM128.762 67.9949C128.708 70.5424 127.929 72.5173 126.812 73.7917C125.757 74.9971 124.18 75.84 121.841 75.84V83.84C126.363 83.84 130.176 82.0929 132.83 79.0633C135.424 76.1027 136.675 72.1976 136.76 68.1651L128.762 67.9949ZM121.841 75.84C119.185 75.84 117.484 75.1603 116.51 74.3296C115.626 73.5757 114.921 72.3464 114.921 70.18H106.921C106.921 74.3136 108.386 77.9143 111.317 80.4154C114.159 82.8397 117.917 83.84 121.841 83.84V75.84ZM110.921 66.18H88.5213V74.18H110.921V66.18Z" fill="#F50000" fill-opacity="0.6"/>
</svg>
