<svg width="161" height="103" viewBox="0 0 161 103" fill="none" xmlns="http://www.w3.org/2000/svg">
<path d="M37.5 -3.82001C26.5562 -3.82001 16.371 -0.460317 8.85868 6.04645C1.28356 12.6076 -3.32 22.1604 -3.32 33.92H4.68C4.68 24.3996 8.33644 17.0824 14.0963 12.0935C19.919 7.0503 28.1438 4.17999 37.5 4.17999V-3.82001ZM-3.32 33.92V68.36H4.68V33.92H-3.32ZM-3.32 68.36C-3.32 80.1837 1.27948 89.7413 8.86323 96.29C16.3809 102.782 26.5673 106.1 37.5 106.1V98.1C28.1327 98.1 19.9091 95.2584 14.0918 90.235C8.34052 85.2687 4.68 77.9563 4.68 68.36H-3.32ZM37.5 106.1C48.37 106.1 58.4909 102.777 65.9561 96.2797C73.4849 89.7269 78.04 80.1717 78.04 68.36H70.04C70.04 77.9683 66.4051 85.2831 60.7039 90.2453C54.9391 95.2628 46.79 98.1 37.5 98.1V106.1ZM78.04 68.36V33.92H70.04V68.36H78.04ZM78.04 33.92C78.04 22.1724 73.4808 12.622 65.9606 6.05673C58.5008 -0.455835 48.3812 -3.82001 37.5 -3.82001V4.17999C46.7788 4.17999 54.9292 7.04582 60.6994 12.0833C66.4092 17.068 70.04 24.3876 70.04 33.92H78.04ZM37.5 75.7C34.4495 75.7 32.2493 74.8931 30.8768 73.7197C29.5947 72.6235 28.62 70.8604 28.62 67.94H20.62C20.62 72.8596 22.3753 76.9765 25.6782 79.8003C28.8908 82.5469 33.1305 83.7 37.5 83.7V75.7ZM28.62 67.94V34.48H20.62V67.94H28.62ZM28.62 34.48C28.62 31.4632 29.6144 29.6165 30.9164 28.4735C32.2938 27.2643 34.4825 26.44 37.5 26.44V18.44C33.0975 18.44 28.8462 19.6457 25.6386 22.4615C22.3556 25.3435 20.62 29.5168 20.62 34.48H28.62ZM37.5 26.44C40.3455 26.44 42.5121 27.2476 43.9086 28.4735C45.2311 29.6345 46.24 31.4938 46.24 34.48H54.24C54.24 29.4861 52.4489 25.3255 49.1864 22.4615C45.9979 19.6624 41.7945 18.44 37.5 18.44V26.44ZM46.24 34.48V67.94H54.24V34.48H46.24ZM46.24 67.94C46.24 70.8293 45.2515 72.6054 43.9482 73.7197C42.5572 74.9089 40.3791 75.7 37.5 75.7V83.7C41.7609 83.7 45.9528 82.5311 49.1468 79.8003C52.4285 76.9946 54.24 72.8907 54.24 67.94H46.24ZM152.081 83.06V79.06H148.081V83.06H152.081ZM160.621 83.06V87.06H164.621V83.06H160.621ZM160.621 62.48H164.621V58.48H160.621V62.48ZM152.081 62.48H148.081V66.48H152.081V62.48ZM152.081 3.39999H156.081V-0.600008H152.081V3.39999ZM125.201 3.39999V-0.600008H122.888L121.734 1.40478L125.201 3.39999ZM85.7213 72L82.2544 70.0048L81.7213 70.9312V72H85.7213ZM85.7213 83.06H81.7213V87.06H85.7213V83.06ZM128.981 83.06H132.981V79.06H128.981V83.06ZM128.981 101.4H124.981V105.4H128.981V101.4ZM152.081 101.4V105.4H156.081V101.4H152.081ZM131.921 31.12L135.91 31.4217L136.235 27.12H131.921V31.12ZM130.661 47.78L126.673 47.4783L126.661 47.629V47.78H130.661ZM130.661 63.46V67.46H134.661V63.46H130.661ZM113.581 63.46L110.089 61.5097L106.766 67.46H113.581V63.46ZM131.641 31.12V27.12H129.294L128.149 29.1697L131.641 31.12ZM152.081 87.06H160.621V79.06H152.081V87.06ZM164.621 83.06V62.48H156.621V83.06H164.621ZM160.621 58.48H152.081V66.48H160.621V58.48ZM156.081 62.48V3.39999H148.081V62.48H156.081ZM152.081 -0.600008H125.201V7.39999H152.081V-0.600008ZM121.734 1.40478L82.2544 70.0048L89.1881 73.9952L128.668 5.39521L121.734 1.40478ZM81.7213 72V83.06H89.7213V72H81.7213ZM85.7213 87.06H128.981V79.06H85.7213V87.06ZM124.981 83.06V101.4H132.981V83.06H124.981ZM128.981 105.4H152.081V97.4H128.981V105.4ZM156.081 101.4V83.06H148.081V101.4H156.081ZM127.933 30.8183L126.673 47.4783L134.65 48.0817L135.91 31.4217L127.933 30.8183ZM126.661 47.78V63.46H134.661V47.78H126.661ZM130.661 59.46H113.581V67.46H130.661V59.46ZM117.074 65.4103L135.134 33.0703L128.149 29.1697L110.089 61.5097L117.074 65.4103ZM131.641 35.12H131.921V27.12H131.641V35.12Z" fill="#F50000" fill-opacity="0.6"/>
</svg>
