<svg width="159" height="103" viewBox="0 0 159 103" fill="none" xmlns="http://www.w3.org/2000/svg">
<path d="M37.5 -3.82001C26.5562 -3.82001 16.371 -0.460317 8.85868 6.04645C1.28356 12.6076 -3.32 22.1604 -3.32 33.92H4.68C4.68 24.3996 8.33644 17.0824 14.0963 12.0935C19.919 7.0503 28.1438 4.17999 37.5 4.17999V-3.82001ZM-3.32 33.92V68.36H4.68V33.92H-3.32ZM-3.32 68.36C-3.32 80.1837 1.27948 89.7413 8.86323 96.29C16.3809 102.782 26.5673 106.1 37.5 106.1V98.1C28.1327 98.1 19.9091 95.2584 14.0918 90.235C8.34052 85.2687 4.68 77.9563 4.68 68.36H-3.32ZM37.5 106.1C48.37 106.1 58.4909 102.777 65.9561 96.2797C73.4849 89.7269 78.04 80.1717 78.04 68.36H70.04C70.04 77.9683 66.4051 85.2831 60.7039 90.2453C54.9391 95.2628 46.79 98.1 37.5 98.1V106.1ZM78.04 68.36V33.92H70.04V68.36H78.04ZM78.04 33.92C78.04 22.1724 73.4808 12.622 65.9606 6.05673C58.5008 -0.455835 48.3812 -3.82001 37.5 -3.82001V4.17999C46.7788 4.17999 54.9292 7.04582 60.6994 12.0833C66.4092 17.068 70.04 24.3876 70.04 33.92H78.04ZM37.5 75.7C34.4495 75.7 32.2493 74.8931 30.8768 73.7197C29.5947 72.6235 28.62 70.8604 28.62 67.94H20.62C20.62 72.8596 22.3753 76.9765 25.6782 79.8003C28.8908 82.5469 33.1305 83.7 37.5 83.7V75.7ZM28.62 67.94V34.48H20.62V67.94H28.62ZM28.62 34.48C28.62 31.4632 29.6144 29.6165 30.9164 28.4735C32.2938 27.2643 34.4825 26.44 37.5 26.44V18.44C33.0975 18.44 28.8462 19.6457 25.6386 22.4615C22.3556 25.3435 20.62 29.5168 20.62 34.48H28.62ZM37.5 26.44C40.3455 26.44 42.5121 27.2476 43.9086 28.4735C45.2311 29.6345 46.24 31.4938 46.24 34.48H54.24C54.24 29.4861 52.4489 25.3255 49.1864 22.4615C45.9979 19.6624 41.7945 18.44 37.5 18.44V26.44ZM46.24 34.48V67.94H54.24V34.48H46.24ZM46.24 67.94C46.24 70.8293 45.2515 72.6054 43.9482 73.7197C42.5572 74.9089 40.3791 75.7 37.5 75.7V83.7C41.7609 83.7 45.9528 82.5311 49.1468 79.8003C52.4285 76.9946 54.24 72.8907 54.24 67.94H46.24ZM113.301 23.28V19.28H109.301V23.28H113.301ZM153.621 23.28V27.28H157.621V23.28H153.621ZM153.621 1.99999H157.621V-2.00001H153.621V1.99999ZM92.4413 1.99999V-2.00001H88.4413V1.99999H92.4413ZM92.4413 55.2H88.4413V59.323L92.5624 59.1982L92.4413 55.2ZM113.021 54.5L112.807 58.4943L112.836 58.4958L112.866 58.497L113.021 54.5ZM112.321 70.18L116.32 70.0949L116.237 66.18H112.321V70.18ZM90.0613 70.18V66.18H85.974L86.0622 70.2663L90.0613 70.18ZM121.281 35.18L121.363 31.1808L121.322 31.18H121.281V35.18ZM113.301 35.46H109.301V39.6761L113.511 39.4545L113.301 35.46ZM113.301 27.28H153.621V19.28H113.301V27.28ZM157.621 23.28V1.99999H149.621V23.28H157.621ZM153.621 -2.00001H92.4413V5.99999H153.621V-2.00001ZM88.4413 1.99999V55.2H96.4413V1.99999H88.4413ZM92.5624 59.1982C97.7567 59.0408 105.14 58.0835 112.807 58.4943L113.235 50.5057C105.222 50.0765 96.3658 51.0792 92.3201 51.2018L92.5624 59.1982ZM112.866 58.497C118.089 58.7005 122.609 59.4802 125.705 61.1046C127.196 61.8868 128.233 62.8012 128.906 63.8329C129.564 64.8402 130.021 66.1805 130.021 68.08H138.021C138.021 64.7995 137.201 61.9048 135.606 59.4602C134.026 57.04 131.834 55.2857 129.422 54.0204C124.713 51.5498 118.734 50.7195 113.177 50.503L112.866 58.497ZM130.021 68.08C130.021 70.5636 129.259 72.4677 128.164 73.6969C127.115 74.8753 125.532 75.7 123.241 75.7V83.7C127.671 83.7 131.478 82.0047 134.138 79.0181C136.753 76.0823 138.021 72.1764 138.021 68.08H130.021ZM123.241 75.7C120.474 75.7 118.823 75.073 117.91 74.3206C117.115 73.6651 116.372 72.4997 116.32 70.0949L108.322 70.2651C108.411 74.4403 109.838 78.0349 112.822 80.4944C115.689 82.857 119.429 83.7 123.241 83.7V75.7ZM112.321 66.18H90.0613V74.18H112.321V66.18ZM86.0622 70.2663C86.2939 81.0041 90.3794 90.0102 97.2431 96.3136C104.08 102.592 113.418 105.96 123.801 105.96V97.96C115.145 97.96 107.823 95.1679 102.654 90.4214C97.5131 85.6998 94.2486 78.8159 94.0603 70.0937L86.0622 70.2663ZM123.801 105.96C149.221 105.96 162.241 86.3975 162.241 68.08H154.241C154.241 82.8025 144.022 97.96 123.801 97.96V105.96ZM162.241 68.08C162.241 54.5193 157.736 45.0798 149.829 39.1395C142.156 33.3747 131.91 31.3976 121.363 31.1808L121.199 39.1792C131.092 39.3824 139.327 41.2553 145.024 45.5355C150.487 49.6402 154.241 56.4407 154.241 68.08H162.241ZM121.281 31.18C118.498 31.18 115.733 31.3265 113.091 31.4655L113.511 39.4545C116.189 39.3135 118.744 39.18 121.281 39.18V31.18ZM117.301 35.46V23.28H109.301V35.46H117.301Z" fill="#F50000" fill-opacity="0.6"/>
</svg>
