<svg width="158" height="140" viewBox="0 0 158 140" fill="none" xmlns="http://www.w3.org/2000/svg">
<path d="M45.5 1.17999C34.5562 1.17999 24.371 4.53968 16.8587 11.0465C9.28356 17.6076 4.68 27.1604 4.68 38.92H12.68C12.68 29.3996 16.3364 22.0824 22.0963 17.0935C27.919 12.0503 36.1438 9.17999 45.5 9.17999V1.17999ZM4.68 38.92V73.36H12.68V38.92H4.68ZM4.68 73.36C4.68 85.1837 9.27948 94.7413 16.8632 101.29C24.3809 107.782 34.5673 111.1 45.5 111.1V103.1C36.1328 103.1 27.9091 100.258 22.0918 95.235C16.3405 90.2687 12.68 82.9563 12.68 73.36H4.68ZM45.5 111.1C56.37 111.1 66.4909 107.777 73.9561 101.28C81.4849 94.7269 86.04 85.1717 86.04 73.36H78.04C78.04 82.9683 74.4051 90.2831 68.7039 95.2453C62.9391 100.263 54.79 103.1 45.5 103.1V111.1ZM86.04 73.36V38.92H78.04V73.36H86.04ZM86.04 38.92C86.04 27.1724 81.4809 17.622 73.9606 11.0567C66.5008 4.54417 56.3812 1.17999 45.5 1.17999V9.17999C54.7788 9.17999 62.9292 12.0458 68.6994 17.0833C74.4092 22.068 78.04 29.3876 78.04 38.92H86.04ZM45.5 80.7C42.4495 80.7 40.2493 79.8931 38.8768 78.7197C37.5947 77.6235 36.62 75.8604 36.62 72.94H28.62C28.62 77.8596 30.3753 81.9765 33.6782 84.8003C36.8908 87.5469 41.1305 88.7 45.5 88.7V80.7ZM36.62 72.94V39.48H28.62V72.94H36.62ZM36.62 39.48C36.62 36.4632 37.6144 34.6165 38.9164 33.4735C40.2938 32.2643 42.4825 31.44 45.5 31.44V23.44C41.0975 23.44 36.8462 24.6457 33.6386 27.4615C30.3556 30.3435 28.62 34.5168 28.62 39.48H36.62ZM45.5 31.44C48.3455 31.44 50.5121 32.2476 51.9086 33.4735C53.2311 34.6345 54.24 36.4938 54.24 39.48H62.24C62.24 34.4861 60.4489 30.3255 57.1864 27.4615C53.9979 24.6624 49.7945 23.44 45.5 23.44V31.44ZM54.24 39.48V72.94H62.24V39.48H54.24ZM54.24 72.94C54.24 75.8293 53.2515 77.6054 51.9482 78.7197C50.5572 79.9089 48.3791 80.7 45.5 80.7V88.7C49.7609 88.7 53.9528 87.5311 57.1468 84.8003C60.4285 81.9946 62.24 77.8907 62.24 72.94H54.24ZM113.041 27.02H117.041V23.02H113.041V27.02ZM113.041 85.4V89.4H117.041V85.4H113.041ZM97.7812 85.4V81.4H93.7812V85.4H97.7812ZM97.7812 105H93.7812V109H97.7812V105ZM153.221 105V109H157.221V105H153.221ZM153.221 85.4H157.221V81.4H153.221V85.4ZM137.541 85.4H133.541V89.4H137.541V85.4ZM137.541 6.99999H141.541V2.99999H137.541V6.99999ZM99.7412 6.99999V2.99999H95.7412V6.99999H99.7412ZM99.7412 27.02H95.7412V31.02H99.7412V27.02ZM109.041 27.02V85.4H117.041V27.02H109.041ZM113.041 81.4H97.7812V89.4H113.041V81.4ZM93.7812 85.4V105H101.781V85.4H93.7812ZM97.7812 109H153.221V101H97.7812V109ZM157.221 105V85.4H149.221V105H157.221ZM153.221 81.4H137.541V89.4H153.221V81.4ZM141.541 85.4V6.99999H133.541V85.4H141.541ZM137.541 2.99999H99.7412V11H137.541V2.99999ZM95.7412 6.99999V27.02H103.741V6.99999H95.7412ZM99.7412 31.02H113.041V23.02H99.7412V31.02Z" fill="white"/>
</svg>
