<svg width="146" height="103" viewBox="0 0 146 103" fill="none" xmlns="http://www.w3.org/2000/svg">
<path d="M37.5 -3.82001C26.5562 -3.82001 16.371 -0.460317 8.85868 6.04645C1.28356 12.6076 -3.32 22.1604 -3.32 33.92H4.68C4.68 24.3996 8.33644 17.0824 14.0963 12.0935C19.919 7.0503 28.1438 4.17999 37.5 4.17999V-3.82001ZM-3.32 33.92V68.36H4.68V33.92H-3.32ZM-3.32 68.36C-3.32 80.1837 1.27948 89.7413 8.86323 96.29C16.3809 102.782 26.5673 106.1 37.5 106.1V98.1C28.1327 98.1 19.9091 95.2584 14.0918 90.235C8.34052 85.2687 4.68 77.9563 4.68 68.36H-3.32ZM37.5 106.1C48.37 106.1 58.4909 102.777 65.9561 96.2797C73.4849 89.7269 78.04 80.1717 78.04 68.36H70.04C70.04 77.9683 66.4051 85.2831 60.7039 90.2453C54.9391 95.2628 46.79 98.1 37.5 98.1V106.1ZM78.04 68.36V33.92H70.04V68.36H78.04ZM78.04 33.92C78.04 22.1724 73.4808 12.622 65.9606 6.05673C58.5008 -0.455835 48.3812 -3.82001 37.5 -3.82001V4.17999C46.7788 4.17999 54.9292 7.04582 60.6994 12.0833C66.4092 17.068 70.04 24.3876 70.04 33.92H78.04ZM37.5 75.7C34.4495 75.7 32.2493 74.8931 30.8768 73.7197C29.5947 72.6235 28.62 70.8604 28.62 67.94H20.62C20.62 72.8596 22.3753 76.9765 25.6782 79.8003C28.8908 82.5469 33.1305 83.7 37.5 83.7V75.7ZM28.62 67.94V34.48H20.62V67.94H28.62ZM28.62 34.48C28.62 31.4632 29.6144 29.6165 30.9164 28.4735C32.2938 27.2643 34.4825 26.44 37.5 26.44V18.44C33.0975 18.44 28.8462 19.6457 25.6386 22.4615C22.3556 25.3435 20.62 29.5168 20.62 34.48H28.62ZM37.5 26.44C40.3455 26.44 42.5121 27.2476 43.9086 28.4735C45.2311 29.6345 46.24 31.4938 46.24 34.48H54.24C54.24 29.4861 52.4489 25.3255 49.1864 22.4615C45.9979 19.6624 41.7945 18.44 37.5 18.44V26.44ZM46.24 34.48V67.94H54.24V34.48H46.24ZM46.24 67.94C46.24 70.8293 45.2515 72.6054 43.9482 73.7197C42.5572 74.9089 40.3791 75.7 37.5 75.7V83.7C41.7609 83.7 45.9528 82.5311 49.1468 79.8003C52.4285 76.9946 54.24 72.8907 54.24 67.94H46.24ZM105.041 22.02H109.041V18.02H105.041V22.02ZM105.041 80.4V84.4H109.041V80.4H105.041ZM89.7813 80.4V76.4H85.7813V80.4H89.7813ZM89.7813 100H85.7813V104H89.7813V100ZM145.221 100V104H149.221V100H145.221ZM145.221 80.4H149.221V76.4H145.221V80.4ZM129.541 80.4H125.541V84.4H129.541V80.4ZM129.541 1.99999H133.541V-2.00001H129.541V1.99999ZM91.7413 1.99999V-2.00001H87.7413V1.99999H91.7413ZM91.7413 22.02H87.7413V26.02H91.7413V22.02ZM101.041 22.02V80.4H109.041V22.02H101.041ZM105.041 76.4H89.7813V84.4H105.041V76.4ZM85.7813 80.4V100H93.7813V80.4H85.7813ZM89.7813 104H145.221V96H89.7813V104ZM149.221 100V80.4H141.221V100H149.221ZM145.221 76.4H129.541V84.4H145.221V76.4ZM133.541 80.4V1.99999H125.541V80.4H133.541ZM129.541 -2.00001H91.7413V5.99999H129.541V-2.00001ZM87.7413 1.99999V22.02H95.7413V1.99999H87.7413ZM91.7413 26.02H105.041V18.02H91.7413V26.02Z" fill="white"/>
</svg>
