<svg width="171" height="140" viewBox="0 0 171 140" fill="none" xmlns="http://www.w3.org/2000/svg">
<path d="M45.5 1.17999C34.5562 1.17999 24.371 4.53968 16.8587 11.0465C9.28356 17.6076 4.68 27.1604 4.68 38.92H12.68C12.68 29.3996 16.3364 22.0824 22.0963 17.0935C27.919 12.0503 36.1438 9.17999 45.5 9.17999V1.17999ZM4.68 38.92V73.36H12.68V38.92H4.68ZM4.68 73.36C4.68 85.1837 9.27948 94.7413 16.8632 101.29C24.3809 107.782 34.5673 111.1 45.5 111.1V103.1C36.1328 103.1 27.9091 100.258 22.0918 95.235C16.3405 90.2687 12.68 82.9563 12.68 73.36H4.68ZM45.5 111.1C56.37 111.1 66.4909 107.777 73.9561 101.28C81.4849 94.7269 86.04 85.1717 86.04 73.36H78.04C78.04 82.9683 74.4051 90.2831 68.7039 95.2453C62.9391 100.263 54.79 103.1 45.5 103.1V111.1ZM86.04 73.36V38.92H78.04V73.36H86.04ZM86.04 38.92C86.04 27.1724 81.4809 17.622 73.9606 11.0567C66.5008 4.54417 56.3812 1.17999 45.5 1.17999V9.17999C54.7788 9.17999 62.9292 12.0458 68.6994 17.0833C74.4092 22.068 78.04 29.3876 78.04 38.92H86.04ZM45.5 80.7C42.4495 80.7 40.2493 79.8931 38.8768 78.7197C37.5947 77.6235 36.62 75.8604 36.62 72.94H28.62C28.62 77.8596 30.3753 81.9765 33.6782 84.8003C36.8908 87.5469 41.1305 88.7 45.5 88.7V80.7ZM36.62 72.94V39.48H28.62V72.94H36.62ZM36.62 39.48C36.62 36.4632 37.6144 34.6165 38.9164 33.4735C40.2938 32.2643 42.4825 31.44 45.5 31.44V23.44C41.0975 23.44 36.8462 24.6457 33.6386 27.4615C30.3556 30.3435 28.62 34.5168 28.62 39.48H36.62ZM45.5 31.44C48.3455 31.44 50.5121 32.2476 51.9086 33.4735C53.2311 34.6345 54.24 36.4938 54.24 39.48H62.24C62.24 34.4861 60.4489 30.3255 57.1864 27.4615C53.9979 24.6624 49.7945 23.44 45.5 23.44V31.44ZM54.24 39.48V72.94H62.24V39.48H54.24ZM54.24 72.94C54.24 75.8293 53.2515 77.6054 51.9482 78.7197C50.5572 79.9089 48.3791 80.7 45.5 80.7V88.7C49.7609 88.7 53.9528 87.5311 57.1468 84.8003C60.4285 81.9946 62.24 77.8907 62.24 72.94H54.24ZM128.021 28L128.169 24.0027L128.156 24.0022L128.142 24.0018L128.021 28ZM130.401 50.12L133.696 52.3881L133.713 52.3636L133.729 52.3388L130.401 50.12ZM96.3812 99.54L93.0864 97.2719L92.3812 98.2963V99.54H96.3812ZM96.3812 105H92.3812V109H96.3812V105ZM164.141 105V109H168.141V105H164.141ZM164.141 82.32H168.141V78.32H164.141V82.32ZM133.061 82.32L129.828 79.9652L125.2 86.32H133.061V82.32ZM152.101 55.44L148.794 53.1897L148.101 54.2081V55.44H152.101ZM97.5013 37.38L93.5021 37.4633L93.5837 41.38H97.5013V37.38ZM118.641 37.38V41.38H122.641V37.38H118.641ZM127.873 31.9973C130.047 32.0778 130.921 32.6639 131.265 33.0155C131.606 33.3628 131.978 34.0405 131.984 35.4541C131.996 38.4928 130.268 43.1089 127.073 47.9012L133.729 52.3388C137.255 47.0511 140.006 40.8171 139.984 35.4209C139.972 32.617 139.198 29.6809 136.979 27.4164C134.764 25.1561 131.665 24.1322 128.169 24.0027L127.873 31.9973ZM127.106 47.8519L93.0864 97.2719L99.6761 101.808L133.696 52.3881L127.106 47.8519ZM92.3812 99.54V105H100.381V99.54H92.3812ZM96.3812 109H164.141V101H96.3812V109ZM168.141 105V82.32H160.141V105H168.141ZM164.141 78.32H133.061V86.32H164.141V78.32ZM136.295 84.6748C145.675 71.7948 150.457 65.1148 152.898 61.6122C154.107 59.8773 154.788 58.8568 155.174 58.2272C155.368 57.9112 156.101 56.8339 156.101 55.44H148.101C148.101 54.1861 148.8 53.3188 148.355 54.044C148.102 54.4556 147.54 55.3077 146.335 57.0378C143.946 60.4652 139.208 67.0852 129.828 79.9652L136.295 84.6748ZM155.408 57.6903C164.139 44.8594 165.262 30.8626 160.057 19.866C154.829 8.82407 143.515 1.46 128.861 1.46V9.46C140.667 9.46 149.023 15.2559 152.826 23.289C156.65 31.3674 156.163 42.3606 148.794 53.1897L155.408 57.6903ZM128.861 1.46C118.267 1.46 109.204 4.65214 102.841 11.0361C96.466 17.4314 93.2748 26.5535 93.5021 37.4633L101.5 37.2967C101.308 28.0465 103.997 21.2086 108.507 16.6839C113.028 12.1479 119.856 9.46 128.861 9.46V1.46ZM97.5013 41.38H118.641V33.38H97.5013V41.38ZM122.641 37.38C122.641 35.1337 123.412 33.8952 124.226 33.1858C125.122 32.4055 126.438 31.9539 127.9 31.9982L128.142 24.0018C124.984 23.9061 121.61 24.8545 118.971 27.1541C116.25 29.5248 114.641 33.0463 114.641 37.38H122.641Z" fill="white"/>
</svg>
