<svg width="161" height="103" viewBox="0 0 161 103" fill="none" xmlns="http://www.w3.org/2000/svg">
<path d="M37.5 -3.82001C26.5562 -3.82001 16.371 -0.460317 8.85868 6.04645C1.28356 12.6076 -3.32 22.1604 -3.32 33.92H4.68C4.68 24.3996 8.33644 17.0824 14.0963 12.0935C19.919 7.0503 28.1438 4.17999 37.5 4.17999V-3.82001ZM-3.32 33.92V68.36H4.68V33.92H-3.32ZM-3.32 68.36C-3.32 80.1837 1.27948 89.7413 8.86323 96.29C16.3809 102.782 26.5673 106.1 37.5 106.1V98.1C28.1327 98.1 19.9091 95.2584 14.0918 90.235C8.34052 85.2687 4.68 77.9563 4.68 68.36H-3.32ZM37.5 106.1C48.37 106.1 58.4909 102.777 65.9561 96.2797C73.4849 89.7269 78.04 80.1717 78.04 68.36H70.04C70.04 77.9683 66.4051 85.2831 60.7039 90.2453C54.9391 95.2628 46.79 98.1 37.5 98.1V106.1ZM78.04 68.36V33.92H70.04V68.36H78.04ZM78.04 33.92C78.04 22.1724 73.4808 12.622 65.9606 6.05673C58.5008 -0.455835 48.3812 -3.82001 37.5 -3.82001V4.17999C46.7788 4.17999 54.9292 7.04582 60.6994 12.0833C66.4092 17.068 70.04 24.3876 70.04 33.92H78.04ZM37.5 75.7C34.4495 75.7 32.2493 74.8931 30.8768 73.7197C29.5947 72.6235 28.62 70.8604 28.62 67.94H20.62C20.62 72.8596 22.3753 76.9765 25.6782 79.8003C28.8908 82.5469 33.1305 83.7 37.5 83.7V75.7ZM28.62 67.94V34.48H20.62V67.94H28.62ZM28.62 34.48C28.62 31.4632 29.6144 29.6165 30.9164 28.4735C32.2938 27.2643 34.4825 26.44 37.5 26.44V18.44C33.0975 18.44 28.8462 19.6457 25.6386 22.4615C22.3556 25.3435 20.62 29.5168 20.62 34.48H28.62ZM37.5 26.44C40.3455 26.44 42.5121 27.2476 43.9086 28.4735C45.2311 29.6345 46.24 31.4938 46.24 34.48H54.24C54.24 29.4861 52.4489 25.3255 49.1864 22.4615C45.9979 19.6624 41.7945 18.44 37.5 18.44V26.44ZM46.24 34.48V67.94H54.24V34.48H46.24ZM46.24 67.94C46.24 70.8293 45.2515 72.6054 43.9482 73.7197C42.5572 74.9089 40.3791 75.7 37.5 75.7V83.7C41.7609 83.7 45.9528 82.5311 49.1468 79.8003C52.4285 76.9946 54.24 72.8907 54.24 67.94H46.24ZM120.021 23L120.169 19.0027L120.156 19.0022L120.142 19.0018L120.021 23ZM122.401 45.12L125.696 47.3881L125.713 47.3636L125.729 47.3388L122.401 45.12ZM88.3813 94.54L85.0864 92.2719L84.3813 93.2963V94.54H88.3813ZM88.3813 100H84.3813V104H88.3813V100ZM156.141 100V104H160.141V100H156.141ZM156.141 77.32H160.141V73.32H156.141V77.32ZM125.061 77.32L121.828 74.9652L117.2 81.32H125.061V77.32ZM144.101 50.44L140.794 48.1897L140.101 49.2081V50.44H144.101ZM89.5013 32.38L85.5021 32.4633L85.5837 36.38H89.5013V32.38ZM110.641 32.38V36.38H114.641V32.38H110.641ZM119.873 26.9973C122.047 27.0778 122.921 27.6639 123.265 28.0155C123.606 28.3628 123.978 29.0405 123.984 30.4541C123.996 33.4928 122.268 38.1089 119.073 42.9012L125.729 47.3388C129.255 42.0511 132.006 35.8171 131.984 30.4209C131.972 27.617 131.198 24.6809 128.979 22.4164C126.764 20.1561 123.665 19.1322 120.169 19.0027L119.873 26.9973ZM119.106 42.8519L85.0864 92.2719L91.6761 96.8081L125.696 47.3881L119.106 42.8519ZM84.3813 94.54V100H92.3813V94.54H84.3813ZM88.3813 104H156.141V96H88.3813V104ZM160.141 100V77.32H152.141V100H160.141ZM156.141 73.32H125.061V81.32H156.141V73.32ZM128.295 79.6748C137.675 66.7948 142.457 60.1148 144.898 56.6122C146.107 54.8773 146.788 53.8569 147.174 53.2272C147.368 52.9112 148.101 51.8339 148.101 50.44H140.101C140.101 49.1861 140.8 48.3188 140.355 49.044C140.102 49.4556 139.54 50.3077 138.335 52.0378C135.946 55.4652 131.208 62.0852 121.828 74.9652L128.295 79.6748ZM147.408 52.6903C156.139 39.8594 157.262 25.8626 152.057 14.866C146.829 3.82407 135.515 -3.54 120.861 -3.54V4.46C132.667 4.46 141.023 10.2559 144.826 18.289C148.65 26.3674 148.163 37.3606 140.794 48.1897L147.408 52.6903ZM120.861 -3.54C110.267 -3.54 101.204 -0.347864 94.8408 6.03611C88.466 12.4314 85.2748 21.5535 85.5021 32.4633L93.5004 32.2967C93.3077 23.0465 95.9965 16.2086 100.507 11.6839C105.028 7.14786 111.856 4.46 120.861 4.46V-3.54ZM89.5013 36.38H110.641V28.38H89.5013V36.38ZM114.641 32.38C114.641 30.1337 115.412 28.8952 116.226 28.1858C117.122 27.4055 118.438 26.9539 119.9 26.9982L120.142 19.0018C116.984 18.9061 113.61 19.8545 110.971 22.1541C108.25 24.5248 106.641 28.0463 106.641 32.38H114.641Z" fill="white"/>
</svg>
