<svg width="172" height="140" viewBox="0 0 172 140" fill="none" xmlns="http://www.w3.org/2000/svg">
<path d="M45.5 1.17999C34.5562 1.17999 24.371 4.53968 16.8587 11.0465C9.28356 17.6076 4.68 27.1604 4.68 38.92H12.68C12.68 29.3996 16.3364 22.0824 22.0963 17.0935C27.919 12.0503 36.1438 9.17999 45.5 9.17999V1.17999ZM4.68 38.92V73.36H12.68V38.92H4.68ZM4.68 73.36C4.68 85.1837 9.27948 94.7413 16.8632 101.29C24.3809 107.782 34.5673 111.1 45.5 111.1V103.1C36.1328 103.1 27.9091 100.258 22.0918 95.235C16.3405 90.2687 12.68 82.9563 12.68 73.36H4.68ZM45.5 111.1C56.37 111.1 66.4909 107.777 73.9561 101.28C81.4849 94.7269 86.04 85.1717 86.04 73.36H78.04C78.04 82.9683 74.4051 90.2831 68.7039 95.2453C62.9391 100.263 54.79 103.1 45.5 103.1V111.1ZM86.04 73.36V38.92H78.04V73.36H86.04ZM86.04 38.92C86.04 27.1724 81.4809 17.622 73.9606 11.0567C66.5008 4.54417 56.3812 1.17999 45.5 1.17999V9.17999C54.7788 9.17999 62.9292 12.0458 68.6994 17.0833C74.4092 22.068 78.04 29.3876 78.04 38.92H86.04ZM45.5 80.7C42.4495 80.7 40.2493 79.8931 38.8768 78.7197C37.5947 77.6235 36.62 75.8604 36.62 72.94H28.62C28.62 77.8596 30.3753 81.9765 33.6782 84.8003C36.8908 87.5469 41.1305 88.7 45.5 88.7V80.7ZM36.62 72.94V39.48H28.62V72.94H36.62ZM36.62 39.48C36.62 36.4632 37.6144 34.6165 38.9164 33.4735C40.2938 32.2643 42.4825 31.44 45.5 31.44V23.44C41.0975 23.44 36.8462 24.6457 33.6386 27.4615C30.3556 30.3435 28.62 34.5168 28.62 39.48H36.62ZM45.5 31.44C48.3455 31.44 50.5121 32.2476 51.9086 33.4735C53.2311 34.6345 54.24 36.4938 54.24 39.48H62.24C62.24 34.4861 60.4489 30.3255 57.1864 27.4615C53.9979 24.6624 49.7945 23.44 45.5 23.44V31.44ZM54.24 39.48V72.94H62.24V39.48H54.24ZM54.24 72.94C54.24 75.8293 53.2515 77.6054 51.9482 78.7197C50.5572 79.9089 48.3791 80.7 45.5 80.7V88.7C49.7609 88.7 53.9528 87.5311 57.1468 84.8003C60.4285 81.9946 62.24 77.8907 62.24 72.94H54.24ZM96.5212 75.18V71.18H92.434L92.5222 75.2663L96.5212 75.18ZM144.821 43.68L141.305 41.7729L138.877 46.2496L143.802 47.5478L144.821 43.68ZM162.741 10.64L166.257 12.547L166.741 11.6549V10.64H162.741ZM162.741 6.99999H166.741V2.99999H162.741V6.99999ZM100.301 6.99999V2.99999H96.3013V6.99999H100.301ZM100.301 27.72H96.3013V31.72H100.301V27.72ZM130.401 27.72L133.972 29.5227L136.902 23.72H130.401V27.72ZM115.841 56.56L112.271 54.7573L111.841 55.6075V56.56H115.841ZM115.841 59.78H111.841V64.1945L116.234 63.7606L115.841 59.78ZM140.761 73.08L144.76 73.1651L144.762 73.0665L144.76 72.9679L140.761 73.08ZM118.921 75.18H122.921V71.18H118.921V75.18ZM92.5222 75.2663C92.754 86.0063 96.8416 94.9822 103.712 101.252C110.553 107.495 119.89 110.82 130.261 110.82V102.82C121.593 102.82 114.269 100.055 109.105 95.3428C103.971 90.6578 100.709 83.8137 100.52 75.0937L92.5222 75.2663ZM130.261 110.82C155.499 110.82 168.841 91.444 168.841 72.94H160.841C160.841 87.756 150.384 102.82 130.261 102.82V110.82ZM168.841 72.94C168.841 66.1395 167.616 59.0582 164.05 53.0209C160.415 46.8662 154.521 42.1005 145.841 39.8122L143.802 47.5478C150.521 49.3195 154.637 52.8138 157.162 57.0891C159.756 61.4818 160.841 67.0005 160.841 72.94H168.841ZM148.337 45.587L166.257 12.547L159.225 8.73294L141.305 41.7729L148.337 45.587ZM166.741 10.64V6.99999H158.741V10.64H166.741ZM162.741 2.99999H100.301V11H162.741V2.99999ZM96.3013 6.99999V27.72H104.301V6.99999H96.3013ZM100.301 31.72H130.401V23.72H100.301V31.72ZM126.831 25.9173L112.271 54.7573L119.412 58.3627L133.972 29.5227L126.831 25.9173ZM111.841 56.56V59.78H119.841V56.56H111.841ZM116.234 63.7606C122.042 63.1871 127.307 62.9079 131.127 64.1858C132.901 64.7792 134.166 65.6523 135.042 66.8658C135.929 68.095 136.674 70.031 136.763 73.1921L144.76 72.9679C144.638 68.639 143.581 65.0275 141.528 62.1836C139.464 59.324 136.652 57.5983 133.665 56.5992C127.965 54.6921 120.981 55.2529 115.448 55.7994L116.234 63.7606ZM136.762 72.9949C136.708 75.5424 135.929 77.5173 134.812 78.7917C133.757 79.9971 132.18 80.84 129.841 80.84V88.84C134.363 88.84 138.176 87.0929 140.83 84.0633C143.424 81.1027 144.675 77.1976 144.76 73.1651L136.762 72.9949ZM129.841 80.84C127.185 80.84 125.484 80.1603 124.51 79.3296C123.626 78.5757 122.921 77.3464 122.921 75.18H114.921C114.921 79.3136 116.386 82.9143 119.317 85.4154C122.159 87.8397 125.917 88.84 129.841 88.84V80.84ZM118.921 71.18H96.5212V79.18H118.921V71.18Z" fill="white"/>
</svg>
