<svg width="51" height="48" viewBox="0 0 51 48" fill="none" xmlns="http://www.w3.org/2000/svg">
<path d="M50.9982 35.1777C50.9798 31.7213 50.9798 28.2648 50.8882 24.8083C50.8515 23.3217 50.7413 21.8165 50.411 20.3671C49.8787 18.0255 48.6306 16.1115 46.263 15.331C43.6567 14.4948 41.3257 15.2753 39.215 16.9292C39.1048 17.0035 39.0132 17.1893 39.0132 17.3194C38.9948 18.9547 39.0132 20.5714 39.0132 22.1882C39.784 22.0395 40.4815 21.835 41.1788 21.7608C42.115 21.6864 42.9959 21.8722 43.5282 22.7642C44.0605 23.6563 44.4092 24.6411 44.4092 25.6817C44.4459 29.6585 44.4459 33.6353 44.4092 37.6121C44.3908 39.359 43.4731 40.5297 41.8763 41.1057C41.7478 41.1614 41.5644 41.3472 41.546 41.4773C41.546 43.4472 41.5644 45.3984 41.5644 47.3681C41.5644 47.7027 41.6927 47.8327 42.0599 47.8514C45.4921 47.8886 48.9242 45.4913 50.1173 42.1834C50.9066 39.9165 51.0166 37.5377 50.9982 35.1777ZM44.0972 7.00581C45.7675 6.81998 47.4559 6.61557 49.1262 6.44832C49.4016 6.41115 49.5483 6.35541 49.5483 6.0395C49.5483 4.06968 49.5483 2.0813 49.5483 0C46.8135 0.315912 44.189 0.613241 41.5644 0.929151C38.5542 1.28223 35.6176 1.67247 32.6076 1.98838C32.5158 3.25203 32.4056 4.55285 32.3323 5.83507C32.2773 6.63415 32.2589 7.45179 32.2038 8.28804C33.8741 8.10221 35.4891 7.93497 37.0859 7.76772C39.4169 7.52613 41.7478 7.26597 44.0972 7.00581ZM37.4164 27.2613C37.4898 23.8606 37.5814 20.4785 37.6732 17.0778C37.7283 15.1452 37.8018 13.194 37.8568 11.2613C37.8752 10.6852 37.8568 10.1092 37.8568 9.51453C37.5814 9.51453 37.398 9.51453 37.196 9.51453C35.7094 9.58886 34.2044 9.70035 32.7177 9.73752C32.1855 9.7561 32.0753 9.96051 32.0569 10.4251C32.0386 11.4843 31.9835 12.5621 31.9468 13.6214C31.8001 17.8212 31.6348 22.0395 31.488 26.2392C31.4696 26.7967 31.488 27.3542 31.488 28.0233C33.3967 27.9675 35.2138 27.8931 37.0308 27.8374C37.4347 27.8187 37.4164 27.5587 37.4164 27.2613ZM39.7472 41.0127C38.3157 40.8456 37.5814 39.4519 37.5264 38.0952C37.4715 36.4414 37.4347 34.7875 37.398 33.1522C37.398 32.7247 37.2879 32.5761 36.829 32.5761C35.2322 32.6318 33.6354 32.669 32.0386 32.669C31.6165 32.669 31.5247 32.8548 31.543 33.2265C31.5798 34.2672 31.5614 35.3263 31.5798 36.367C31.6348 37.9838 31.5798 39.6005 31.8184 41.1801C32.1304 43.2057 33.1031 44.9895 34.8101 46.1789C36.3151 47.2195 38.0954 47.6283 40.0226 47.8699C40.0226 45.6399 40.0226 43.4844 40.0043 41.3287C40.0594 41.2358 39.8758 41.0314 39.7472 41.0127ZM9.29801 37.259C9.31637 36.6086 9.05941 36.4042 8.41702 36.3855C6.10442 36.2741 5.42532 35.5493 5.37026 33.1893C5.33355 31.4054 5.37026 29.6213 5.33355 27.8187C5.31519 27.0569 5.24179 26.2951 5.18672 25.5331H0.0476024C0.0476024 28.302 -0.0808756 30.978 0.0843104 33.6353C0.433036 39.0801 3.29625 42.1464 8.34361 42.7596C9.05941 42.8525 9.31637 42.6482 9.29801 41.9234C9.27965 40.3623 9.27965 38.82 9.29801 37.259ZM0.0292484 23.4705H5.20507C5.20507 21.9094 5.18672 20.4228 5.20507 18.9547C5.26013 15.9257 6.10442 14.9779 9.05941 14.6249C9.11448 14.6249 9.16954 14.5505 9.27965 14.4762V9.51453C5.77404 9.10569 1.91971 11.6144 0.653284 15.0709C-0.356185 17.8212 0.176081 20.6458 0.0292484 23.4705ZM10.3809 48H16.2358V3.58653C14.2169 3.80952 12.3081 4.01393 10.3809 4.21834V48ZM21.3015 17.0964C21.3199 18.2114 21.3199 19.3263 21.3199 20.4413C21.3199 21.2033 21.3199 21.9466 21.3199 22.6899H27.2114C27.2114 20.1254 27.3216 17.6911 27.1749 15.2753C27.0464 13.1196 26.0185 11.3542 24.183 10.1463C22.2926 8.91986 20.1819 8.73403 18.0161 8.91986C17.8143 8.93844 17.4838 9.25435 17.4838 9.45878C17.4471 11.0383 17.4655 12.6179 17.4655 14.2346C17.9243 14.2532 18.2548 14.2718 18.5667 14.2904C20.5489 14.3647 21.2648 15.108 21.3015 17.0964ZM27.2665 24.8083C25.5597 24.8083 23.9629 24.8455 22.3661 24.7898C21.6318 24.7713 21.375 25.0313 21.3933 25.7933C21.4117 27.9117 21.3566 30.0489 21.3566 32.1672C21.3566 34.8804 20.3288 36.3485 17.7776 36.6086C17.6858 36.6086 17.6124 36.7015 17.5389 36.7387V42.295C22.5862 42.5738 25.7982 39.8606 26.826 35.921C27.7804 32.2601 27.0464 28.5435 27.2665 24.8083Z" fill="url(#paint0_linear_209_388)"/>
<defs>
<linearGradient id="paint0_linear_209_388" x1="3.1676" y1="24.0033" x2="51.3679" y2="24.0033" gradientUnits="userSpaceOnUse">
<stop offset="0.0343547" stop-color="#273580"/>
<stop offset="0.2149" stop-color="#46317C"/>
<stop offset="0.6071" stop-color="#942673"/>
<stop offset="0.8615" stop-color="#CA1E6D"/>
</linearGradient>
</defs>
</svg>
