<svg width="173" height="67" viewBox="0 0 173 67" fill="none" xmlns="http://www.w3.org/2000/svg">
<path d="M4.82418 63.7121C3.94418 63.7121 3.19418 63.5921 2.57418 63.3521C1.96085 63.1121 1.49085 62.7654 1.16418 62.3121C0.837513 61.8521 0.67418 61.2988 0.67418 60.6521C0.67418 59.9921 0.837513 59.4354 1.16418 58.9821C1.49085 58.5288 1.96085 58.1821 2.57418 57.9421C3.19418 57.7021 3.94418 57.5821 4.82418 57.5821C4.83751 57.5821 4.86751 57.5821 4.91418 57.5821C4.96751 57.5821 5.01751 57.5821 5.06418 57.5821C5.11751 57.5821 5.14751 57.5821 5.15418 57.5821C6.02751 57.5821 6.77085 57.7021 7.38418 57.9421C7.99751 58.1821 8.46418 58.5321 8.78418 58.9921C9.10418 59.4454 9.26418 59.9988 9.26418 60.6521C9.26418 61.2921 9.10418 61.8421 8.78418 62.3021C8.47085 62.7621 8.01085 63.1121 7.40418 63.3521C6.80418 63.5921 6.07085 63.7121 5.20418 63.7121C5.19085 63.7121 5.15418 63.7121 5.09418 63.7121C5.04085 63.7121 4.98418 63.7121 4.92418 63.7121C4.87085 63.7121 4.83751 63.7121 4.82418 63.7121ZM4.95418 62.7021C4.96751 62.7021 4.98751 62.7021 5.01418 62.7021C5.04085 62.7021 5.05751 62.7021 5.06418 62.7021C5.71085 62.6954 6.25085 62.6154 6.68418 62.4621C7.12418 62.3088 7.45418 62.0821 7.67418 61.7821C7.90085 61.4754 8.01418 61.0954 8.01418 60.6421C8.01418 60.1888 7.90085 59.8121 7.67418 59.5121C7.44751 59.2121 7.11751 58.9854 6.68418 58.8321C6.25085 58.6788 5.71751 58.6021 5.08418 58.6021C5.07751 58.6021 5.05751 58.6021 5.02418 58.6021C4.99085 58.6021 4.96751 58.6021 4.95418 58.6021C4.29418 58.6021 3.73751 58.6788 3.28418 58.8321C2.83751 58.9788 2.50085 59.2054 2.27418 59.5121C2.05418 59.8121 1.94418 60.1921 1.94418 60.6521C1.94418 61.1121 2.06085 61.4954 2.29418 61.8021C2.53418 62.1021 2.87751 62.3288 3.32418 62.4821C3.77085 62.6288 4.31418 62.7021 4.95418 62.7021ZM4.37418 64.4421V56.8821H5.57418V64.4421H4.37418ZM13.4494 64.2321C13.0161 64.2321 12.6194 64.1321 12.2594 63.9321C11.9061 63.7321 11.6227 63.4321 11.4094 63.0321C11.2027 62.6254 11.0994 62.1121 11.0994 61.4921C11.0994 60.8654 11.1994 60.3521 11.3994 59.9521C11.6061 59.5521 11.8861 59.2554 12.2394 59.0621C12.5927 58.8621 12.9961 58.7621 13.4494 58.7621C13.9761 58.7621 14.4394 58.8754 14.8394 59.1021C15.2461 59.3288 15.5661 59.6454 15.7994 60.0521C16.0394 60.4588 16.1594 60.9388 16.1594 61.4921C16.1594 62.0454 16.0394 62.5288 15.7994 62.9421C15.5661 63.3488 15.2461 63.6654 14.8394 63.8921C14.4394 64.1188 13.9761 64.2321 13.4494 64.2321ZM10.4894 66.1021V58.8221H11.6794V60.0821L11.6394 61.5021L11.7394 62.9221V66.1021H10.4894ZM13.3094 63.1621C13.6094 63.1621 13.8761 63.0954 14.1094 62.9621C14.3494 62.8288 14.5394 62.6354 14.6794 62.3821C14.8194 62.1288 14.8894 61.8321 14.8894 61.4921C14.8894 61.1454 14.8194 60.8488 14.6794 60.6021C14.5394 60.3488 14.3494 60.1554 14.1094 60.0221C13.8761 59.8888 13.6094 59.8221 13.3094 59.8221C13.0094 59.8221 12.7394 59.8888 12.4994 60.0221C12.2594 60.1554 12.0694 60.3488 11.9294 60.6021C11.7894 60.8488 11.7194 61.1454 11.7194 61.4921C11.7194 61.8321 11.7894 62.1288 11.9294 62.3821C12.0694 62.6354 12.2594 62.8288 12.4994 62.9621C12.7394 63.0954 13.0094 63.1621 13.3094 63.1621ZM20.5751 64.1621V63.0821L20.5051 62.8521V60.9621C20.5051 60.5954 20.3951 60.3121 20.1751 60.1121C19.9551 59.9054 19.6218 59.8021 19.1751 59.8021C18.8751 59.8021 18.5785 59.8488 18.2851 59.9421C17.9985 60.0354 17.7551 60.1654 17.5551 60.3321L17.0651 59.4221C17.3518 59.2021 17.6918 59.0388 18.0851 58.9321C18.4851 58.8188 18.8985 58.7621 19.3251 58.7621C20.0985 58.7621 20.6951 58.9488 21.1151 59.3221C21.5418 59.6888 21.7551 60.2588 21.7551 61.0321V64.1621H20.5751ZM18.8951 64.2321C18.4951 64.2321 18.1451 64.1654 17.8451 64.0321C17.5451 63.8921 17.3118 63.7021 17.1451 63.4621C16.9851 63.2154 16.9051 62.9388 16.9051 62.6321C16.9051 62.3321 16.9751 62.0621 17.1151 61.8221C17.2618 61.5821 17.4985 61.3921 17.8251 61.2521C18.1518 61.1121 18.5851 61.0421 19.1251 61.0421H20.6751V61.8721H19.2151C18.7885 61.8721 18.5018 61.9421 18.3551 62.0821C18.2085 62.2154 18.1351 62.3821 18.1351 62.5821C18.1351 62.8088 18.2251 62.9888 18.4051 63.1221C18.5851 63.2554 18.8351 63.3221 19.1551 63.3221C19.4618 63.3221 19.7351 63.2521 19.9751 63.1121C20.2218 62.9721 20.3985 62.7654 20.5051 62.4921L20.7151 63.2421C20.5951 63.5554 20.3785 63.7988 20.0651 63.9721C19.7585 64.1454 19.3685 64.2321 18.8951 64.2321ZM23.3019 64.1621V58.8221H24.5519V60.9921H27.2419V58.8221H28.4919V64.1621H27.2419V62.0521H24.5519V64.1621H23.3019ZM33.7571 63.1021L33.4871 63.4021V58.8221H34.7371V63.4021L34.4371 63.1021H37.0771L36.7871 63.4021V58.8221H38.0371V64.1621H30.1671V58.8221H31.4171V63.4021L31.1271 63.1021H33.7571ZM39.7179 64.1621V58.8221H40.9679V62.3421L43.9179 58.8221H45.0579V64.1621H43.8079V60.6421L40.8679 64.1621H39.7179ZM48.3611 64.2521C48.8544 64.2521 49.2911 64.1821 49.6711 64.0421C50.0577 63.9021 50.3611 63.7088 50.5811 63.4621C50.8011 63.2088 50.9111 62.9188 50.9111 62.5921C50.9111 62.1854 50.7411 61.8654 50.4011 61.6321C50.0611 61.3921 49.5944 61.2721 49.0011 61.2721L48.9611 61.5421C49.3077 61.5421 49.6144 61.4854 49.8811 61.3721C50.1544 61.2588 50.3677 61.1021 50.5211 60.9021C50.6811 60.6954 50.7611 60.4654 50.7611 60.2121C50.7611 59.9054 50.6511 59.6388 50.4311 59.4121C50.2111 59.1854 49.9111 59.0121 49.5311 58.8921C49.1511 58.7721 48.7177 58.7221 48.2311 58.7421C47.9111 58.7488 47.5877 58.7954 47.2611 58.8821C46.9411 58.9621 46.6111 59.0788 46.2711 59.2321L46.5911 60.1521C46.8844 60.0254 47.1711 59.9288 47.4511 59.8621C47.7377 59.7954 48.0144 59.7621 48.2811 59.7621C48.5344 59.7621 48.7511 59.7888 48.9311 59.8421C49.1111 59.8888 49.2477 59.9621 49.3411 60.0621C49.4411 60.1554 49.4911 60.2654 49.4911 60.3921C49.4911 60.5188 49.4511 60.6288 49.3711 60.7221C49.2911 60.8154 49.1744 60.8854 49.0211 60.9321C48.8744 60.9788 48.6944 61.0021 48.4811 61.0021H47.5511V61.8421H48.5811C48.9211 61.8421 49.1811 61.8988 49.3611 62.0121C49.5477 62.1188 49.6411 62.2788 49.6411 62.4921C49.6411 62.6388 49.5844 62.7688 49.4711 62.8821C49.3644 62.9954 49.2111 63.0821 49.0111 63.1421C48.8111 63.1954 48.5711 63.2221 48.2911 63.2221C47.9644 63.2221 47.6377 63.1821 47.3111 63.1021C46.9844 63.0221 46.6911 62.9088 46.4311 62.7621L46.0811 63.6921C46.4011 63.8721 46.7577 64.0121 47.1511 64.1121C47.5511 64.2054 47.9544 64.2521 48.3611 64.2521ZM55.4384 64.1621V63.0821L55.3684 62.8521V60.9621C55.3684 60.5954 55.2584 60.3121 55.0384 60.1121C54.8184 59.9054 54.4851 59.8021 54.0384 59.8021C53.7384 59.8021 53.4417 59.8488 53.1484 59.9421C52.8617 60.0354 52.6184 60.1654 52.4184 60.3321L51.9284 59.4221C52.2151 59.2021 52.5551 59.0388 52.9484 58.9321C53.3484 58.8188 53.7617 58.7621 54.1884 58.7621C54.9617 58.7621 55.5584 58.9488 55.9784 59.3221C56.4051 59.6888 56.6184 60.2588 56.6184 61.0321V64.1621H55.4384ZM53.7584 64.2321C53.3584 64.2321 53.0084 64.1654 52.7084 64.0321C52.4084 63.8921 52.1751 63.7021 52.0084 63.4621C51.8484 63.2154 51.7684 62.9388 51.7684 62.6321C51.7684 62.3321 51.8384 62.0621 51.9784 61.8221C52.1251 61.5821 52.3617 61.3921 52.6884 61.2521C53.0151 61.1121 53.4484 61.0421 53.9884 61.0421H55.5384V61.8721H54.0784C53.6517 61.8721 53.3651 61.9421 53.2184 62.0821C53.0717 62.2154 52.9984 62.3821 52.9984 62.5821C52.9984 62.8088 53.0884 62.9888 53.2684 63.1221C53.4484 63.2554 53.6984 63.3221 54.0184 63.3221C54.3251 63.3221 54.5984 63.2521 54.8384 63.1121C55.0851 62.9721 55.2617 62.7654 55.3684 62.4921L55.5784 63.2421C55.4584 63.5554 55.2417 63.7988 54.9284 63.9721C54.6217 64.1454 54.2317 64.2321 53.7584 64.2321ZM60.9289 64.1621V58.8221H62.2389L64.3889 62.6121H63.8689L66.1289 58.8221H67.2989L67.3089 64.1621H66.1789V60.1621L66.3789 60.2921L64.3789 63.6021H63.8389L61.8289 60.2021L62.0689 60.1421V64.1621H60.9289ZM69.4655 66.1721C69.2055 66.1721 68.9455 66.1288 68.6855 66.0421C68.4255 65.9554 68.2088 65.8354 68.0355 65.6821L68.5355 64.7621C68.6622 64.8754 68.8055 64.9654 68.9655 65.0321C69.1255 65.0988 69.2888 65.1321 69.4555 65.1321C69.6822 65.1321 69.8655 65.0754 70.0055 64.9621C70.1455 64.8488 70.2755 64.6588 70.3955 64.3921L70.7055 63.6921L70.8055 63.5421L72.8255 58.8221H74.0255L71.5255 64.5921C71.3588 64.9921 71.1722 65.3088 70.9655 65.5421C70.7655 65.7754 70.5388 65.9388 70.2855 66.0321C70.0388 66.1254 69.7655 66.1721 69.4655 66.1721ZM70.5655 64.3521L68.1555 58.8221H69.4555L71.4155 63.4321L70.5655 64.3521ZM76.4568 64.2521C76.9501 64.2521 77.3868 64.1821 77.7668 64.0421C78.1534 63.9021 78.4568 63.7088 78.6768 63.4621C78.8968 63.2088 79.0068 62.9188 79.0068 62.5921C79.0068 62.1854 78.8368 61.8654 78.4968 61.6321C78.1568 61.3921 77.6901 61.2721 77.0968 61.2721L77.0568 61.5421C77.4034 61.5421 77.7101 61.4854 77.9768 61.3721C78.2501 61.2588 78.4634 61.1021 78.6168 60.9021C78.7768 60.6954 78.8568 60.4654 78.8568 60.2121C78.8568 59.9054 78.7468 59.6388 78.5268 59.4121C78.3068 59.1854 78.0068 59.0121 77.6268 58.8921C77.2468 58.7721 76.8134 58.7221 76.3268 58.7421C76.0068 58.7488 75.6834 58.7954 75.3568 58.8821C75.0368 58.9621 74.7068 59.0788 74.3668 59.2321L74.6868 60.1521C74.9801 60.0254 75.2668 59.9288 75.5468 59.8621C75.8334 59.7954 76.1101 59.7621 76.3768 59.7621C76.6301 59.7621 76.8468 59.7888 77.0268 59.8421C77.2068 59.8888 77.3434 59.9621 77.4368 60.0621C77.5368 60.1554 77.5868 60.2654 77.5868 60.3921C77.5868 60.5188 77.5468 60.6288 77.4668 60.7221C77.3868 60.8154 77.2701 60.8854 77.1168 60.9321C76.9701 60.9788 76.7901 61.0021 76.5768 61.0021H75.6468V61.8421H76.6768C77.0168 61.8421 77.2768 61.8988 77.4568 62.0121C77.6434 62.1188 77.7368 62.2788 77.7368 62.4921C77.7368 62.6388 77.6801 62.7688 77.5668 62.8821C77.4601 62.9954 77.3068 63.0821 77.1068 63.1421C76.9068 63.1954 76.6668 63.2221 76.3868 63.2221C76.0601 63.2221 75.7334 63.1821 75.4068 63.1021C75.0801 63.0221 74.7868 62.9088 74.5268 62.7621L74.1768 63.6921C74.4968 63.8721 74.8534 64.0121 75.2468 64.1121C75.6468 64.2054 76.0501 64.2521 76.4568 64.2521ZM85.6841 64.1621V58.8221H86.9341V64.1621H85.6841ZM82.8941 60.5821C83.5808 60.5821 84.1008 60.7354 84.4541 61.0421C84.8141 61.3488 84.9941 61.7821 84.9941 62.3421C84.9941 62.9221 84.7941 63.3754 84.3941 63.7021C84.0008 64.0221 83.4408 64.1788 82.7141 64.1721L80.2941 64.1621V58.8221H81.5441V60.5721L82.8941 60.5821ZM82.6041 63.2521C82.9708 63.2588 83.2508 63.1821 83.4441 63.0221C83.6374 62.8621 83.7341 62.6288 83.7341 62.3221C83.7341 62.0154 83.6374 61.7954 83.4441 61.6621C83.2574 61.5221 82.9774 61.4488 82.6041 61.4421L81.5441 61.4321V63.2421L82.6041 63.2521ZM92.4444 64.1621L90.5144 61.6021L91.5344 60.9721L93.9144 64.1621H92.4444ZM88.6144 64.1621V58.8221H89.8644V64.1621H88.6144ZM89.4944 62.0221V60.9821H91.3044V62.0221H89.4944ZM91.6544 61.6421L90.4844 61.5021L92.4444 58.8221H93.7844L91.6544 61.6421ZM97.9384 64.1621V63.0821L97.8684 62.8521V60.9621C97.8684 60.5954 97.7584 60.3121 97.5384 60.1121C97.3184 59.9054 96.9851 59.8021 96.5384 59.8021C96.2384 59.8021 95.9417 59.8488 95.6484 59.9421C95.3617 60.0354 95.1184 60.1654 94.9184 60.3321L94.4284 59.4221C94.7151 59.2021 95.0551 59.0388 95.4484 58.9321C95.8484 58.8188 96.2617 58.7621 96.6884 58.7621C97.4617 58.7621 98.0584 58.9488 98.4784 59.3221C98.9051 59.6888 99.1184 60.2588 99.1184 61.0321V64.1621H97.9384ZM96.2584 64.2321C95.8584 64.2321 95.5084 64.1654 95.2084 64.0321C94.9084 63.8921 94.6751 63.7021 94.5084 63.4621C94.3484 63.2154 94.2684 62.9388 94.2684 62.6321C94.2684 62.3321 94.3384 62.0621 94.4784 61.8221C94.6251 61.5821 94.8617 61.3921 95.1884 61.2521C95.5151 61.1121 95.9484 61.0421 96.4884 61.0421H98.0384V61.8721H96.5784C96.1517 61.8721 95.8651 61.9421 95.7184 62.0821C95.5717 62.2154 95.4984 62.3821 95.4984 62.5821C95.4984 62.8088 95.5884 62.9888 95.7684 63.1221C95.9484 63.2554 96.1984 63.3221 96.5184 63.3221C96.8251 63.3221 97.0984 63.2521 97.3384 63.1121C97.5851 62.9721 97.7617 62.7654 97.8684 62.4921L98.0784 63.2421C97.9584 63.5554 97.7417 63.7988 97.4284 63.9721C97.1217 64.1454 96.7317 64.2321 96.2584 64.2321ZM99.8852 64.1521L99.9452 63.1021C99.9919 63.1088 100.035 63.1154 100.075 63.1221C100.115 63.1288 100.152 63.1321 100.185 63.1321C100.392 63.1321 100.552 63.0688 100.665 62.9421C100.779 62.8154 100.862 62.6454 100.915 62.4321C100.975 62.2121 101.015 61.9688 101.035 61.7021C101.062 61.4288 101.082 61.1554 101.095 60.8821L101.185 58.8221H105.505V64.1621H104.255V59.5421L104.545 59.8821H102.005L102.275 59.5321L102.205 60.9421C102.185 61.4154 102.145 61.8554 102.085 62.2621C102.032 62.6621 101.945 63.0121 101.825 63.3121C101.712 63.6121 101.552 63.8454 101.345 64.0121C101.145 64.1788 100.889 64.2621 100.575 64.2621C100.475 64.2621 100.365 64.2521 100.245 64.2321C100.132 64.2121 100.012 64.1854 99.8852 64.1521ZM109.869 60.5821C110.555 60.5821 111.079 60.7354 111.439 61.0421C111.799 61.3488 111.979 61.7821 111.979 62.3421C111.979 62.9221 111.779 63.3754 111.379 63.7021C110.979 64.0221 110.415 64.1788 109.689 64.1721L107.189 64.1621V58.8221H108.439V60.5721L109.869 60.5821ZM109.579 63.2521C109.945 63.2588 110.225 63.1821 110.419 63.0221C110.612 62.8621 110.709 62.6288 110.709 62.3221C110.709 62.0154 110.612 61.7954 110.419 61.6621C110.232 61.5221 109.952 61.4488 109.579 61.4421L108.439 61.4321V63.2421L109.579 63.2521ZM113.077 64.1621V58.8221H114.327V60.9921H117.017V58.8221H118.267V64.1621H117.017V62.0521H114.327V64.1621H113.077ZM122.323 64.2321C121.776 64.2321 121.289 64.1154 120.863 63.8821C120.436 63.6421 120.099 63.3154 119.853 62.9021C119.606 62.4888 119.483 62.0188 119.483 61.4921C119.483 60.9588 119.606 60.4888 119.853 60.0821C120.099 59.6688 120.436 59.3454 120.863 59.1121C121.289 58.8788 121.776 58.7621 122.323 58.7621C122.876 58.7621 123.366 58.8788 123.793 59.1121C124.226 59.3454 124.563 59.6654 124.803 60.0721C125.049 60.4788 125.173 60.9521 125.173 61.4921C125.173 62.0188 125.049 62.4888 124.803 62.9021C124.563 63.3154 124.226 63.6421 123.793 63.8821C123.366 64.1154 122.876 64.2321 122.323 64.2321ZM122.323 63.1621C122.629 63.1621 122.903 63.0954 123.143 62.9621C123.383 62.8288 123.569 62.6354 123.703 62.3821C123.843 62.1288 123.913 61.8321 123.913 61.4921C123.913 61.1454 123.843 60.8488 123.703 60.6021C123.569 60.3488 123.383 60.1554 123.143 60.0221C122.903 59.8888 122.633 59.8221 122.333 59.8221C122.026 59.8221 121.753 59.8888 121.513 60.0221C121.279 60.1554 121.093 60.3488 120.953 60.6021C120.813 60.8488 120.743 61.1454 120.743 61.4921C120.743 61.8321 120.813 62.1288 120.953 62.3821C121.093 62.6354 121.279 62.8288 121.513 62.9621C121.753 63.0954 122.023 63.1621 122.323 63.1621ZM126.407 64.1621V58.8221H127.657V62.3421L130.607 58.8221H131.747V64.1621H130.497V60.6421L127.557 64.1621H126.407ZM128.997 58.1921C128.464 58.1921 128.054 58.0688 127.767 57.8221C127.481 57.5688 127.334 57.2021 127.327 56.7221H128.157C128.164 56.9621 128.237 57.1521 128.377 57.2921C128.524 57.4321 128.727 57.5021 128.987 57.5021C129.241 57.5021 129.441 57.4321 129.587 57.2921C129.741 57.1521 129.821 56.9621 129.827 56.7221H130.677C130.671 57.2021 130.521 57.5688 130.227 57.8221C129.941 58.0688 129.531 58.1921 128.997 58.1921ZM138.623 64.2321C138.063 64.2321 137.563 64.1154 137.123 63.8821C136.689 63.6421 136.349 63.3154 136.103 62.9021C135.856 62.4888 135.733 62.0188 135.733 61.4921C135.733 60.9588 135.856 60.4888 136.103 60.0821C136.349 59.6688 136.689 59.3454 137.123 59.1121C137.563 58.8788 138.063 58.7621 138.623 58.7621C139.143 58.7621 139.599 58.8688 139.993 59.0821C140.393 59.2888 140.696 59.5954 140.903 60.0021L139.943 60.5621C139.783 60.3088 139.586 60.1221 139.353 60.0021C139.126 59.8821 138.879 59.8221 138.613 59.8221C138.306 59.8221 138.029 59.8888 137.783 60.0221C137.536 60.1554 137.343 60.3488 137.203 60.6021C137.063 60.8488 136.993 61.1454 136.993 61.4921C136.993 61.8388 137.063 62.1388 137.203 62.3921C137.343 62.6388 137.536 62.8288 137.783 62.9621C138.029 63.0954 138.306 63.1621 138.613 63.1621C138.879 63.1621 139.126 63.1021 139.353 62.9821C139.586 62.8621 139.783 62.6754 139.943 62.4221L140.903 62.9821C140.696 63.3821 140.393 63.6921 139.993 63.9121C139.599 64.1254 139.143 64.2321 138.623 64.2321ZM143.074 64.1621V59.5821L143.364 59.8821H141.194V58.8221H146.194V59.8821H144.034L144.324 59.5821V64.1621H143.074ZM147.591 66.1721C147.331 66.1721 147.071 66.1288 146.811 66.0421C146.551 65.9554 146.334 65.8354 146.161 65.6821L146.661 64.7621C146.787 64.8754 146.931 64.9654 147.091 65.0321C147.251 65.0988 147.414 65.1321 147.581 65.1321C147.807 65.1321 147.991 65.0754 148.131 64.9621C148.271 64.8488 148.401 64.6588 148.521 64.3921L148.831 63.6921L148.931 63.5421L150.951 58.8221H152.151L149.651 64.5921C149.484 64.9921 149.297 65.3088 149.091 65.5421C148.891 65.7754 148.664 65.9388 148.411 66.0321C148.164 66.1254 147.891 66.1721 147.591 66.1721ZM148.691 64.3521L146.281 58.8221H147.581L149.541 63.4321L148.691 64.3521ZM156.356 63.5821V59.8821H154.306L154.276 60.7421C154.263 61.0488 154.243 61.3454 154.216 61.6321C154.19 61.9121 154.146 62.1721 154.086 62.4121C154.026 62.6454 153.94 62.8388 153.826 62.9921C153.713 63.1454 153.563 63.2454 153.376 63.2921L152.136 63.1021C152.336 63.1021 152.496 63.0388 152.616 62.9121C152.743 62.7788 152.84 62.5988 152.906 62.3721C152.98 62.1388 153.033 61.8754 153.066 61.5821C153.1 61.2821 153.123 60.9721 153.136 60.6521L153.206 58.8221H157.606V63.5821H156.356ZM151.946 65.3521V63.1021H158.396V65.3521H157.226V64.1621H153.106V65.3521H151.946ZM159.513 64.1621V58.8221H160.763V62.3421L163.713 58.8221H164.853V64.1621H163.603V60.6421L160.663 64.1621H159.513ZM166.534 64.1621V58.8221H167.784V62.3421L170.734 58.8221H171.874V64.1621H170.624V60.6421L167.684 64.1621H166.534Z" fill="white"/>
<path fill-rule="evenodd" clip-rule="evenodd" d="M12.0446 0.293858C9.83886 0.996318 7.82099 2.70969 6.90202 4.66074C6.01271 6.54883 5.95698 7.52156 6.01709 20.1039L6.07342 31.8982H8.85998H11.6465L11.7461 19.5951C11.839 8.11268 11.8699 7.25509 12.2094 6.73474C12.9964 5.52872 8.50728 5.61088 73.6412 5.61088H133.36V2.81224V0.0135936L73.1002 0.0269874C25.0083 0.0375822 12.68 0.0915559 12.0446 0.293858ZM138.933 2.80544V5.61088H148.493C159.052 5.61088 159.077 5.61368 159.827 6.84829C160.118 7.32845 160.229 7.859 160.229 8.78275L160.23 10.0553L159.683 9.9222C158.68 9.67812 150.617 9.56677 149.004 9.77467C145.869 10.1791 143.564 11.8247 142.239 14.6065L141.62 15.9059L141.559 20.4703C141.509 24.3038 141.552 25.2 141.831 26.0676C142.815 29.1261 145.428 31.3292 148.621 31.7928C150.377 32.0479 156.937 32.0479 158.737 31.7928C162.347 31.2815 165.223 28.4646 165.81 24.8658C166.078 23.2258 166.057 8.37895 165.785 6.89706C165.292 4.21096 163.544 1.92687 161.089 0.758832L159.732 0.113545L149.333 0.0567734L138.933 0V2.80544ZM25.684 9.82705C23.9757 10.0489 22.1551 10.9955 20.9252 12.3016C18.9481 14.4012 18.5134 15.9333 18.5134 20.8035C18.5134 25.8087 19.0467 27.5357 21.2327 29.6123C23.3015 31.5773 24.9776 31.9963 30.7544 31.9927C35.5519 31.9895 36.883 31.7996 38.6515 30.8663C40.2904 30.0013 41.422 28.7949 42.2768 27.0005L42.8958 25.7012V20.8035V15.9059L42.281 14.6029C41.0484 11.9904 38.5438 10.1669 35.679 9.79586C34.0153 9.58036 27.425 9.60096 25.684 9.82705ZM54.3116 9.80645C51.6534 10.1497 49.0934 12.0502 47.9103 14.5584L47.2747 15.9059L47.2194 28.8496L47.1641 41.7934H49.9562H52.7483V36.6725V31.5517L53.2957 31.6891C53.5966 31.7644 55.8595 31.8752 58.3242 31.9349C64.928 32.0951 66.7418 31.6981 68.9379 29.6123C71.1239 27.5357 71.6571 25.8087 71.6571 20.8035C71.6571 15.9333 71.2224 14.4012 69.2454 12.3016C67.958 10.9345 66.2204 10.0615 64.2927 9.81345C62.5873 9.59396 55.9933 9.58936 54.3116 9.80645ZM82.8086 9.82705C79.4076 10.2686 76.5004 13.0927 75.8386 16.5976C75.579 17.9715 75.579 23.6356 75.8386 25.0095C76.5018 28.5222 79.2905 31.2375 82.8034 31.7912C84.4556 32.0517 91.2369 32.0517 93.0303 31.7914C95.829 31.385 98.1404 29.6469 99.4014 27.0005L100.02 25.7012V20.8035V15.9059L99.4014 14.6065C98.1126 11.9016 95.7579 10.1779 92.8348 9.79966C91.1454 9.58116 84.5641 9.59896 82.8086 9.82705ZM111.431 9.82405C108.271 10.2898 105.625 12.5377 104.701 15.5427C104.356 16.6647 104.3 17.4018 104.3 20.8035C104.3 24.2017 104.356 24.9429 104.7 26.0608C105.457 28.523 107.269 30.4119 109.852 31.4322C110.893 31.8436 111.3 31.8738 115.944 31.8856C118.68 31.8926 121.435 31.83 122.064 31.7464L123.209 31.5949V32.633C123.209 33.9118 122.633 35.1794 121.839 35.6507C121.293 35.9742 119.249 35.9962 89.7889 35.9962H58.3215V38.8948V41.7934L89.2224 41.7894C108.543 41.787 120.646 41.7112 121.517 41.5873C124.626 41.1453 127.168 39.0885 128.303 36.0961C128.656 35.1642 128.682 34.4547 128.682 25.6012V16.1058L128.045 14.7547C126.76 12.0296 124.369 10.2205 121.517 9.81505C119.866 9.58036 113.043 9.58656 111.431 9.82405ZM36.0196 15.7012C36.3321 15.8633 36.7754 16.3013 37.0049 16.6743C37.3862 17.294 37.4222 17.6487 37.4222 20.7871C37.4222 24.6131 37.296 25.1188 36.1685 25.8091C35.5829 26.1677 35.1408 26.1995 30.7116 26.2001L25.8918 26.2009L25.191 25.583C24.2105 24.7184 24.04 23.879 24.1192 20.3088C24.1932 16.9666 24.3276 16.5398 25.5403 15.7972C26.1227 15.4405 26.5684 15.4075 30.8141 15.4069C34.5143 15.4063 35.5664 15.4657 36.0196 15.7012ZM64.6302 15.7972C65.843 16.5398 65.9773 16.9666 66.0514 20.3088C66.1306 23.879 65.96 24.7184 64.9795 25.583L64.2787 26.2009L59.459 26.2001C52.6592 26.1991 52.7483 26.2711 52.7483 20.7871C52.7483 17.6513 52.7846 17.2936 53.1645 16.6759C53.9059 15.4711 54.1412 15.4229 59.3167 15.4149C63.61 15.4081 64.0462 15.4395 64.6302 15.7972ZM93.1722 15.7158C94.3899 16.3481 94.5452 16.9186 94.546 20.7636C94.5468 24.6153 94.422 25.1178 93.293 25.8091C92.7074 26.1677 92.2654 26.1995 87.8361 26.2001L83.0164 26.2009L82.3155 25.583C81.3351 24.7184 81.1645 23.879 81.2437 20.3088C81.3178 16.9666 81.4521 16.5398 82.6649 15.7972C83.2472 15.4405 83.6929 15.4075 87.9386 15.4069C91.7373 15.4063 92.6839 15.4621 93.1722 15.7158ZM122.124 16.0059C123.063 16.8766 123.209 17.5249 123.209 20.8339C123.209 23.4562 123.154 23.9884 122.815 24.6929C122.113 26.1489 121.895 26.2011 116.51 26.2001C111.177 26.1993 110.857 26.1256 110.205 24.745C109.697 23.6701 109.721 17.7838 110.237 16.8179C110.955 15.4725 111.364 15.387 116.774 15.4499L121.585 15.5061L122.124 16.0059ZM158.831 15.703C159.145 15.8663 159.589 16.2625 159.816 16.5834C160.2 17.1241 160.23 17.4404 160.23 20.8873V24.6075L159.549 25.3543L158.868 26.101L153.985 26.1607C148.555 26.2273 148.227 26.1657 147.483 24.9417C147.138 24.3724 147.095 23.9208 147.094 20.8435C147.093 16.9918 147.218 16.4892 148.347 15.798C148.931 15.4403 149.373 15.4075 153.622 15.4069C157.335 15.4063 158.373 15.4653 158.831 15.703Z" fill="white"/>
<path fill-rule="evenodd" clip-rule="evenodd" d="M133 29.2556V32.3901H136H139V29.2556V26.1211H136H133V29.2556Z" fill="#F50203"/>
</svg>
