<svg width="173" height="67" viewBox="0 0 173 67" fill="none" xmlns="http://www.w3.org/2000/svg">
<path d="M4.82418 63.7119C3.94418 63.7119 3.19418 63.5919 2.57418 63.3519C1.96085 63.1119 1.49085 62.7652 1.16418 62.3119C0.837513 61.8519 0.67418 61.2985 0.67418 60.6519C0.67418 59.9919 0.837513 59.4352 1.16418 58.9819C1.49085 58.5285 1.96085 58.1819 2.57418 57.9419C3.19418 57.7019 3.94418 57.5819 4.82418 57.5819C4.83751 57.5819 4.86751 57.5819 4.91418 57.5819C4.96751 57.5819 5.01751 57.5819 5.06418 57.5819C5.11751 57.5819 5.14751 57.5819 5.15418 57.5819C6.02751 57.5819 6.77085 57.7019 7.38418 57.9419C7.99751 58.1819 8.46418 58.5319 8.78418 58.9919C9.10418 59.4452 9.26418 59.9985 9.26418 60.6519C9.26418 61.2919 9.10418 61.8419 8.78418 62.3019C8.47085 62.7619 8.01085 63.1119 7.40418 63.3519C6.80418 63.5919 6.07085 63.7119 5.20418 63.7119C5.19085 63.7119 5.15418 63.7119 5.09418 63.7119C5.04085 63.7119 4.98418 63.7119 4.92418 63.7119C4.87085 63.7119 4.83751 63.7119 4.82418 63.7119ZM4.95418 62.7019C4.96751 62.7019 4.98751 62.7019 5.01418 62.7019C5.04085 62.7019 5.05751 62.7019 5.06418 62.7019C5.71085 62.6952 6.25085 62.6152 6.68418 62.4619C7.12418 62.3085 7.45418 62.0819 7.67418 61.7819C7.90085 61.4752 8.01418 61.0952 8.01418 60.6419C8.01418 60.1885 7.90085 59.8119 7.67418 59.5119C7.44751 59.2119 7.11751 58.9852 6.68418 58.8319C6.25085 58.6785 5.71751 58.6019 5.08418 58.6019C5.07751 58.6019 5.05751 58.6019 5.02418 58.6019C4.99085 58.6019 4.96751 58.6019 4.95418 58.6019C4.29418 58.6019 3.73751 58.6785 3.28418 58.8319C2.83751 58.9785 2.50085 59.2052 2.27418 59.5119C2.05418 59.8119 1.94418 60.1919 1.94418 60.6519C1.94418 61.1119 2.06085 61.4952 2.29418 61.8019C2.53418 62.1019 2.87751 62.3285 3.32418 62.4819C3.77085 62.6285 4.31418 62.7019 4.95418 62.7019ZM4.37418 64.4419V56.8819H5.57418V64.4419H4.37418ZM13.4494 64.2319C13.0161 64.2319 12.6194 64.1319 12.2594 63.9319C11.9061 63.7319 11.6227 63.4319 11.4094 63.0319C11.2027 62.6252 11.0994 62.1119 11.0994 61.4919C11.0994 60.8652 11.1994 60.3519 11.3994 59.9519C11.6061 59.5519 11.8861 59.2552 12.2394 59.0619C12.5927 58.8619 12.9961 58.7619 13.4494 58.7619C13.9761 58.7619 14.4394 58.8752 14.8394 59.1019C15.2461 59.3285 15.5661 59.6452 15.7994 60.0519C16.0394 60.4585 16.1594 60.9385 16.1594 61.4919C16.1594 62.0452 16.0394 62.5285 15.7994 62.9419C15.5661 63.3485 15.2461 63.6652 14.8394 63.8919C14.4394 64.1185 13.9761 64.2319 13.4494 64.2319ZM10.4894 66.1019V58.8219H11.6794V60.0819L11.6394 61.5019L11.7394 62.9219V66.1019H10.4894ZM13.3094 63.1619C13.6094 63.1619 13.8761 63.0952 14.1094 62.9619C14.3494 62.8285 14.5394 62.6352 14.6794 62.3819C14.8194 62.1285 14.8894 61.8319 14.8894 61.4919C14.8894 61.1452 14.8194 60.8485 14.6794 60.6019C14.5394 60.3485 14.3494 60.1552 14.1094 60.0219C13.8761 59.8885 13.6094 59.8219 13.3094 59.8219C13.0094 59.8219 12.7394 59.8885 12.4994 60.0219C12.2594 60.1552 12.0694 60.3485 11.9294 60.6019C11.7894 60.8485 11.7194 61.1452 11.7194 61.4919C11.7194 61.8319 11.7894 62.1285 11.9294 62.3819C12.0694 62.6352 12.2594 62.8285 12.4994 62.9619C12.7394 63.0952 13.0094 63.1619 13.3094 63.1619ZM20.5751 64.1619V63.0819L20.5051 62.8519V60.9619C20.5051 60.5952 20.3951 60.3119 20.1751 60.1119C19.9551 59.9052 19.6218 59.8019 19.1751 59.8019C18.8751 59.8019 18.5785 59.8485 18.2851 59.9419C17.9985 60.0352 17.7551 60.1652 17.5551 60.3319L17.0651 59.4219C17.3518 59.2019 17.6918 59.0385 18.0851 58.9319C18.4851 58.8185 18.8985 58.7619 19.3251 58.7619C20.0985 58.7619 20.6951 58.9485 21.1151 59.3219C21.5418 59.6885 21.7551 60.2585 21.7551 61.0319V64.1619H20.5751ZM18.8951 64.2319C18.4951 64.2319 18.1451 64.1652 17.8451 64.0319C17.5451 63.8919 17.3118 63.7019 17.1451 63.4619C16.9851 63.2152 16.9051 62.9385 16.9051 62.6319C16.9051 62.3319 16.9751 62.0619 17.1151 61.8219C17.2618 61.5819 17.4985 61.3919 17.8251 61.2519C18.1518 61.1119 18.5851 61.0419 19.1251 61.0419H20.6751V61.8719H19.2151C18.7885 61.8719 18.5018 61.9419 18.3551 62.0819C18.2085 62.2152 18.1351 62.3819 18.1351 62.5819C18.1351 62.8085 18.2251 62.9885 18.4051 63.1219C18.5851 63.2552 18.8351 63.3219 19.1551 63.3219C19.4618 63.3219 19.7351 63.2519 19.9751 63.1119C20.2218 62.9719 20.3985 62.7652 20.5051 62.4919L20.7151 63.2419C20.5951 63.5552 20.3785 63.7985 20.0651 63.9719C19.7585 64.1452 19.3685 64.2319 18.8951 64.2319ZM23.3019 64.1619V58.8219H24.5519V60.9919H27.2419V58.8219H28.4919V64.1619H27.2419V62.0519H24.5519V64.1619H23.3019ZM33.7571 63.1019L33.4871 63.4019V58.8219H34.7371V63.4019L34.4371 63.1019H37.0771L36.7871 63.4019V58.8219H38.0371V64.1619H30.1671V58.8219H31.4171V63.4019L31.1271 63.1019H33.7571ZM39.7179 64.1619V58.8219H40.9679V62.3419L43.9179 58.8219H45.0579V64.1619H43.8079V60.6419L40.8679 64.1619H39.7179ZM48.3611 64.2519C48.8544 64.2519 49.2911 64.1819 49.6711 64.0419C50.0577 63.9019 50.3611 63.7085 50.5811 63.4619C50.8011 63.2085 50.9111 62.9185 50.9111 62.5919C50.9111 62.1852 50.7411 61.8652 50.4011 61.6319C50.0611 61.3919 49.5944 61.2719 49.0011 61.2719L48.9611 61.5419C49.3077 61.5419 49.6144 61.4852 49.8811 61.3719C50.1544 61.2585 50.3677 61.1019 50.5211 60.9019C50.6811 60.6952 50.7611 60.4652 50.7611 60.2119C50.7611 59.9052 50.6511 59.6385 50.4311 59.4119C50.2111 59.1852 49.9111 59.0119 49.5311 58.8919C49.1511 58.7719 48.7177 58.7219 48.2311 58.7419C47.9111 58.7485 47.5877 58.7952 47.2611 58.8819C46.9411 58.9619 46.6111 59.0785 46.2711 59.2319L46.5911 60.1519C46.8844 60.0252 47.1711 59.9285 47.4511 59.8619C47.7377 59.7952 48.0144 59.7619 48.2811 59.7619C48.5344 59.7619 48.7511 59.7885 48.9311 59.8419C49.1111 59.8885 49.2477 59.9619 49.3411 60.0619C49.4411 60.1552 49.4911 60.2652 49.4911 60.3919C49.4911 60.5185 49.4511 60.6285 49.3711 60.7219C49.2911 60.8152 49.1744 60.8852 49.0211 60.9319C48.8744 60.9785 48.6944 61.0019 48.4811 61.0019H47.5511V61.8419H48.5811C48.9211 61.8419 49.1811 61.8985 49.3611 62.0119C49.5477 62.1185 49.6411 62.2785 49.6411 62.4919C49.6411 62.6385 49.5844 62.7685 49.4711 62.8819C49.3644 62.9952 49.2111 63.0819 49.0111 63.1419C48.8111 63.1952 48.5711 63.2219 48.2911 63.2219C47.9644 63.2219 47.6377 63.1819 47.3111 63.1019C46.9844 63.0219 46.6911 62.9085 46.4311 62.7619L46.0811 63.6919C46.4011 63.8719 46.7577 64.0119 47.1511 64.1119C47.5511 64.2052 47.9544 64.2519 48.3611 64.2519ZM55.4384 64.1619V63.0819L55.3684 62.8519V60.9619C55.3684 60.5952 55.2584 60.3119 55.0384 60.1119C54.8184 59.9052 54.4851 59.8019 54.0384 59.8019C53.7384 59.8019 53.4417 59.8485 53.1484 59.9419C52.8617 60.0352 52.6184 60.1652 52.4184 60.3319L51.9284 59.4219C52.2151 59.2019 52.5551 59.0385 52.9484 58.9319C53.3484 58.8185 53.7617 58.7619 54.1884 58.7619C54.9617 58.7619 55.5584 58.9485 55.9784 59.3219C56.4051 59.6885 56.6184 60.2585 56.6184 61.0319V64.1619H55.4384ZM53.7584 64.2319C53.3584 64.2319 53.0084 64.1652 52.7084 64.0319C52.4084 63.8919 52.1751 63.7019 52.0084 63.4619C51.8484 63.2152 51.7684 62.9385 51.7684 62.6319C51.7684 62.3319 51.8384 62.0619 51.9784 61.8219C52.1251 61.5819 52.3617 61.3919 52.6884 61.2519C53.0151 61.1119 53.4484 61.0419 53.9884 61.0419H55.5384V61.8719H54.0784C53.6517 61.8719 53.3651 61.9419 53.2184 62.0819C53.0717 62.2152 52.9984 62.3819 52.9984 62.5819C52.9984 62.8085 53.0884 62.9885 53.2684 63.1219C53.4484 63.2552 53.6984 63.3219 54.0184 63.3219C54.3251 63.3219 54.5984 63.2519 54.8384 63.1119C55.0851 62.9719 55.2617 62.7652 55.3684 62.4919L55.5784 63.2419C55.4584 63.5552 55.2417 63.7985 54.9284 63.9719C54.6217 64.1452 54.2317 64.2319 53.7584 64.2319ZM60.9289 64.1619V58.8219H62.2389L64.3889 62.6119H63.8689L66.1289 58.8219H67.2989L67.3089 64.1619H66.1789V60.1619L66.3789 60.2919L64.3789 63.6019H63.8389L61.8289 60.2019L62.0689 60.1419V64.1619H60.9289ZM69.4655 66.1719C69.2055 66.1719 68.9455 66.1285 68.6855 66.0419C68.4255 65.9552 68.2088 65.8352 68.0355 65.6819L68.5355 64.7619C68.6622 64.8752 68.8055 64.9652 68.9655 65.0319C69.1255 65.0985 69.2888 65.1319 69.4555 65.1319C69.6822 65.1319 69.8655 65.0752 70.0055 64.9619C70.1455 64.8485 70.2755 64.6585 70.3955 64.3919L70.7055 63.6919L70.8055 63.5419L72.8255 58.8219H74.0255L71.5255 64.5919C71.3588 64.9919 71.1722 65.3085 70.9655 65.5419C70.7655 65.7752 70.5388 65.9385 70.2855 66.0319C70.0388 66.1252 69.7655 66.1719 69.4655 66.1719ZM70.5655 64.3519L68.1555 58.8219H69.4555L71.4155 63.4319L70.5655 64.3519ZM76.4568 64.2519C76.9501 64.2519 77.3868 64.1819 77.7668 64.0419C78.1534 63.9019 78.4568 63.7085 78.6768 63.4619C78.8968 63.2085 79.0068 62.9185 79.0068 62.5919C79.0068 62.1852 78.8368 61.8652 78.4968 61.6319C78.1568 61.3919 77.6901 61.2719 77.0968 61.2719L77.0568 61.5419C77.4034 61.5419 77.7101 61.4852 77.9768 61.3719C78.2501 61.2585 78.4634 61.1019 78.6168 60.9019C78.7768 60.6952 78.8568 60.4652 78.8568 60.2119C78.8568 59.9052 78.7468 59.6385 78.5268 59.4119C78.3068 59.1852 78.0068 59.0119 77.6268 58.8919C77.2468 58.7719 76.8134 58.7219 76.3268 58.7419C76.0068 58.7485 75.6834 58.7952 75.3568 58.8819C75.0368 58.9619 74.7068 59.0785 74.3668 59.2319L74.6868 60.1519C74.9801 60.0252 75.2668 59.9285 75.5468 59.8619C75.8334 59.7952 76.1101 59.7619 76.3768 59.7619C76.6301 59.7619 76.8468 59.7885 77.0268 59.8419C77.2068 59.8885 77.3434 59.9619 77.4368 60.0619C77.5368 60.1552 77.5868 60.2652 77.5868 60.3919C77.5868 60.5185 77.5468 60.6285 77.4668 60.7219C77.3868 60.8152 77.2701 60.8852 77.1168 60.9319C76.9701 60.9785 76.7901 61.0019 76.5768 61.0019H75.6468V61.8419H76.6768C77.0168 61.8419 77.2768 61.8985 77.4568 62.0119C77.6434 62.1185 77.7368 62.2785 77.7368 62.4919C77.7368 62.6385 77.6801 62.7685 77.5668 62.8819C77.4601 62.9952 77.3068 63.0819 77.1068 63.1419C76.9068 63.1952 76.6668 63.2219 76.3868 63.2219C76.0601 63.2219 75.7334 63.1819 75.4068 63.1019C75.0801 63.0219 74.7868 62.9085 74.5268 62.7619L74.1768 63.6919C74.4968 63.8719 74.8534 64.0119 75.2468 64.1119C75.6468 64.2052 76.0501 64.2519 76.4568 64.2519ZM85.6841 64.1619V58.8219H86.9341V64.1619H85.6841ZM82.8941 60.5819C83.5808 60.5819 84.1008 60.7352 84.4541 61.0419C84.8141 61.3485 84.9941 61.7819 84.9941 62.3419C84.9941 62.9219 84.7941 63.3752 84.3941 63.7019C84.0008 64.0219 83.4408 64.1785 82.7141 64.1719L80.2941 64.1619V58.8219H81.5441V60.5719L82.8941 60.5819ZM82.6041 63.2519C82.9708 63.2585 83.2508 63.1819 83.4441 63.0219C83.6374 62.8619 83.7341 62.6285 83.7341 62.3219C83.7341 62.0152 83.6374 61.7952 83.4441 61.6619C83.2574 61.5219 82.9774 61.4485 82.6041 61.4419L81.5441 61.4319V63.2419L82.6041 63.2519ZM92.4444 64.1619L90.5144 61.6019L91.5344 60.9719L93.9144 64.1619H92.4444ZM88.6144 64.1619V58.8219H89.8644V64.1619H88.6144ZM89.4944 62.0219V60.9819H91.3044V62.0219H89.4944ZM91.6544 61.6419L90.4844 61.5019L92.4444 58.8219H93.7844L91.6544 61.6419ZM97.9384 64.1619V63.0819L97.8684 62.8519V60.9619C97.8684 60.5952 97.7584 60.3119 97.5384 60.1119C97.3184 59.9052 96.9851 59.8019 96.5384 59.8019C96.2384 59.8019 95.9417 59.8485 95.6484 59.9419C95.3617 60.0352 95.1184 60.1652 94.9184 60.3319L94.4284 59.4219C94.7151 59.2019 95.0551 59.0385 95.4484 58.9319C95.8484 58.8185 96.2617 58.7619 96.6884 58.7619C97.4617 58.7619 98.0584 58.9485 98.4784 59.3219C98.9051 59.6885 99.1184 60.2585 99.1184 61.0319V64.1619H97.9384ZM96.2584 64.2319C95.8584 64.2319 95.5084 64.1652 95.2084 64.0319C94.9084 63.8919 94.6751 63.7019 94.5084 63.4619C94.3484 63.2152 94.2684 62.9385 94.2684 62.6319C94.2684 62.3319 94.3384 62.0619 94.4784 61.8219C94.6251 61.5819 94.8617 61.3919 95.1884 61.2519C95.5151 61.1119 95.9484 61.0419 96.4884 61.0419H98.0384V61.8719H96.5784C96.1517 61.8719 95.8651 61.9419 95.7184 62.0819C95.5717 62.2152 95.4984 62.3819 95.4984 62.5819C95.4984 62.8085 95.5884 62.9885 95.7684 63.1219C95.9484 63.2552 96.1984 63.3219 96.5184 63.3219C96.8251 63.3219 97.0984 63.2519 97.3384 63.1119C97.5851 62.9719 97.7617 62.7652 97.8684 62.4919L98.0784 63.2419C97.9584 63.5552 97.7417 63.7985 97.4284 63.9719C97.1217 64.1452 96.7317 64.2319 96.2584 64.2319ZM99.8852 64.1519L99.9452 63.1019C99.9919 63.1085 100.035 63.1152 100.075 63.1219C100.115 63.1285 100.152 63.1319 100.185 63.1319C100.392 63.1319 100.552 63.0685 100.665 62.9419C100.779 62.8152 100.862 62.6452 100.915 62.4319C100.975 62.2119 101.015 61.9685 101.035 61.7019C101.062 61.4285 101.082 61.1552 101.095 60.8819L101.185 58.8219H105.505V64.1619H104.255V59.5419L104.545 59.8819H102.005L102.275 59.5319L102.205 60.9419C102.185 61.4152 102.145 61.8552 102.085 62.2619C102.032 62.6619 101.945 63.0119 101.825 63.3119C101.712 63.6119 101.552 63.8452 101.345 64.0119C101.145 64.1785 100.889 64.2619 100.575 64.2619C100.475 64.2619 100.365 64.2519 100.245 64.2319C100.132 64.2119 100.012 64.1852 99.8852 64.1519ZM109.869 60.5819C110.555 60.5819 111.079 60.7352 111.439 61.0419C111.799 61.3485 111.979 61.7819 111.979 62.3419C111.979 62.9219 111.779 63.3752 111.379 63.7019C110.979 64.0219 110.415 64.1785 109.689 64.1719L107.189 64.1619V58.8219H108.439V60.5719L109.869 60.5819ZM109.579 63.2519C109.945 63.2585 110.225 63.1819 110.419 63.0219C110.612 62.8619 110.709 62.6285 110.709 62.3219C110.709 62.0152 110.612 61.7952 110.419 61.6619C110.232 61.5219 109.952 61.4485 109.579 61.4419L108.439 61.4319V63.2419L109.579 63.2519ZM113.077 64.1619V58.8219H114.327V60.9919H117.017V58.8219H118.267V64.1619H117.017V62.0519H114.327V64.1619H113.077ZM122.323 64.2319C121.776 64.2319 121.289 64.1152 120.863 63.8819C120.436 63.6419 120.099 63.3152 119.853 62.9019C119.606 62.4885 119.483 62.0185 119.483 61.4919C119.483 60.9585 119.606 60.4885 119.853 60.0819C120.099 59.6685 120.436 59.3452 120.863 59.1119C121.289 58.8785 121.776 58.7619 122.323 58.7619C122.876 58.7619 123.366 58.8785 123.793 59.1119C124.226 59.3452 124.563 59.6652 124.803 60.0719C125.049 60.4785 125.173 60.9519 125.173 61.4919C125.173 62.0185 125.049 62.4885 124.803 62.9019C124.563 63.3152 124.226 63.6419 123.793 63.8819C123.366 64.1152 122.876 64.2319 122.323 64.2319ZM122.323 63.1619C122.629 63.1619 122.903 63.0952 123.143 62.9619C123.383 62.8285 123.569 62.6352 123.703 62.3819C123.843 62.1285 123.913 61.8319 123.913 61.4919C123.913 61.1452 123.843 60.8485 123.703 60.6019C123.569 60.3485 123.383 60.1552 123.143 60.0219C122.903 59.8885 122.633 59.8219 122.333 59.8219C122.026 59.8219 121.753 59.8885 121.513 60.0219C121.279 60.1552 121.093 60.3485 120.953 60.6019C120.813 60.8485 120.743 61.1452 120.743 61.4919C120.743 61.8319 120.813 62.1285 120.953 62.3819C121.093 62.6352 121.279 62.8285 121.513 62.9619C121.753 63.0952 122.023 63.1619 122.323 63.1619ZM126.407 64.1619V58.8219H127.657V62.3419L130.607 58.8219H131.747V64.1619H130.497V60.6419L127.557 64.1619H126.407ZM128.997 58.1919C128.464 58.1919 128.054 58.0685 127.767 57.8219C127.481 57.5685 127.334 57.2019 127.327 56.7219H128.157C128.164 56.9619 128.237 57.1519 128.377 57.2919C128.524 57.4319 128.727 57.5019 128.987 57.5019C129.241 57.5019 129.441 57.4319 129.587 57.2919C129.741 57.1519 129.821 56.9619 129.827 56.7219H130.677C130.671 57.2019 130.521 57.5685 130.227 57.8219C129.941 58.0685 129.531 58.1919 128.997 58.1919ZM138.623 64.2319C138.063 64.2319 137.563 64.1152 137.123 63.8819C136.689 63.6419 136.349 63.3152 136.103 62.9019C135.856 62.4885 135.733 62.0185 135.733 61.4919C135.733 60.9585 135.856 60.4885 136.103 60.0819C136.349 59.6685 136.689 59.3452 137.123 59.1119C137.563 58.8785 138.063 58.7619 138.623 58.7619C139.143 58.7619 139.599 58.8685 139.993 59.0819C140.393 59.2885 140.696 59.5952 140.903 60.0019L139.943 60.5619C139.783 60.3085 139.586 60.1219 139.353 60.0019C139.126 59.8819 138.879 59.8219 138.613 59.8219C138.306 59.8219 138.029 59.8885 137.783 60.0219C137.536 60.1552 137.343 60.3485 137.203 60.6019C137.063 60.8485 136.993 61.1452 136.993 61.4919C136.993 61.8385 137.063 62.1385 137.203 62.3919C137.343 62.6385 137.536 62.8285 137.783 62.9619C138.029 63.0952 138.306 63.1619 138.613 63.1619C138.879 63.1619 139.126 63.1019 139.353 62.9819C139.586 62.8619 139.783 62.6752 139.943 62.4219L140.903 62.9819C140.696 63.3819 140.393 63.6919 139.993 63.9119C139.599 64.1252 139.143 64.2319 138.623 64.2319ZM143.074 64.1619V59.5819L143.364 59.8819H141.194V58.8219H146.194V59.8819H144.034L144.324 59.5819V64.1619H143.074ZM147.591 66.1719C147.331 66.1719 147.071 66.1285 146.811 66.0419C146.551 65.9552 146.334 65.8352 146.161 65.6819L146.661 64.7619C146.787 64.8752 146.931 64.9652 147.091 65.0319C147.251 65.0985 147.414 65.1319 147.581 65.1319C147.807 65.1319 147.991 65.0752 148.131 64.9619C148.271 64.8485 148.401 64.6585 148.521 64.3919L148.831 63.6919L148.931 63.5419L150.951 58.8219H152.151L149.651 64.5919C149.484 64.9919 149.297 65.3085 149.091 65.5419C148.891 65.7752 148.664 65.9385 148.411 66.0319C148.164 66.1252 147.891 66.1719 147.591 66.1719ZM148.691 64.3519L146.281 58.8219H147.581L149.541 63.4319L148.691 64.3519ZM156.356 63.5819V59.8819H154.306L154.276 60.7419C154.263 61.0485 154.243 61.3452 154.216 61.6319C154.19 61.9119 154.146 62.1719 154.086 62.4119C154.026 62.6452 153.94 62.8385 153.826 62.9919C153.713 63.1452 153.563 63.2452 153.376 63.2919L152.136 63.1019C152.336 63.1019 152.496 63.0385 152.616 62.9119C152.743 62.7785 152.84 62.5985 152.906 62.3719C152.98 62.1385 153.033 61.8752 153.066 61.5819C153.1 61.2819 153.123 60.9719 153.136 60.6519L153.206 58.8219H157.606V63.5819H156.356ZM151.946 65.3519V63.1019H158.396V65.3519H157.226V64.1619H153.106V65.3519H151.946ZM159.513 64.1619V58.8219H160.763V62.3419L163.713 58.8219H164.853V64.1619H163.603V60.6419L160.663 64.1619H159.513ZM166.534 64.1619V58.8219H167.784V62.3419L170.734 58.8219H171.874V64.1619H170.624V60.6419L167.684 64.1619H166.534Z" fill="white"/>
<path fill-rule="evenodd" clip-rule="evenodd" d="M6.04462 0.293858C3.83886 0.996318 1.82099 2.70969 0.902019 4.66074C0.0127074 6.54883 -0.0430236 7.52156 0.0170865 20.1039L0.073415 31.8982H2.85998H5.64654L5.74606 19.5951C5.83901 8.11268 5.86986 7.25509 6.20943 6.73474C6.99643 5.52872 2.50728 5.61088 67.6412 5.61088H127.36V2.81224V0.0135936L67.1002 0.0269874C19.0083 0.0375822 6.67996 0.0915559 6.04462 0.293858ZM132.933 2.80544V5.61088H142.493C153.052 5.61088 153.077 5.61368 153.827 6.84829C154.118 7.32845 154.229 7.859 154.229 8.78275L154.23 10.0553L153.683 9.9222C152.68 9.67812 144.617 9.56677 143.004 9.77467C139.869 10.1791 137.564 11.8247 136.239 14.6065L135.62 15.9059L135.559 20.4703C135.509 24.3038 135.552 25.2 135.831 26.0676C136.815 29.1261 139.428 31.3292 142.621 31.7928C144.377 32.0479 150.937 32.0479 152.737 31.7928C156.347 31.2815 159.223 28.4646 159.81 24.8658C160.078 23.2258 160.057 8.37895 159.785 6.89706C159.292 4.21096 157.544 1.92687 155.089 0.758832L153.732 0.113545L143.333 0.0567734L132.933 0V2.80544ZM19.684 9.82705C17.9757 10.0489 16.1551 10.9955 14.9252 12.3016C12.9481 14.4012 12.5134 15.9333 12.5134 20.8035C12.5134 25.8087 13.0467 27.5357 15.2327 29.6123C17.3015 31.5773 18.9777 31.9963 24.7544 31.9927C29.5519 31.9895 30.883 31.7996 32.6515 30.8663C34.2904 30.0013 35.422 28.7949 36.2768 27.0005L36.8958 25.7012V20.8035V15.9059L36.281 14.6029C35.0484 11.9904 32.5438 10.1669 29.679 9.79586C28.0153 9.58036 21.425 9.60095 19.684 9.82705ZM48.3116 9.80646C45.6534 10.1497 43.0934 12.0502 41.9103 14.5584L41.2747 15.9059L41.2194 28.8496L41.1641 41.7934H43.9562H46.7483V36.6725V31.5517L47.2957 31.6891C47.5966 31.7644 49.8595 31.8752 52.3242 31.9349C58.928 32.0951 60.7418 31.6981 62.9379 29.6123C65.1239 27.5357 65.6571 25.8087 65.6571 20.8035C65.6571 15.9333 65.2224 14.4012 63.2454 12.3016C61.958 10.9345 60.2204 10.0615 58.2927 9.81345C56.5873 9.59396 49.9933 9.58936 48.3116 9.80646ZM76.8086 9.82705C73.4076 10.2686 70.5004 13.0927 69.8386 16.5976C69.579 17.9715 69.579 23.6356 69.8386 25.0095C70.5018 28.5222 73.2905 31.2375 76.8034 31.7912C78.4556 32.0517 85.2369 32.0517 87.0303 31.7914C89.829 31.385 92.1404 29.6468 93.4014 27.0005L94.0204 25.7012V20.8035V15.9059L93.4014 14.6065C92.1126 11.9016 89.7579 10.1779 86.8348 9.79966C85.1454 9.58116 78.5641 9.59896 76.8086 9.82705ZM105.431 9.82405C102.271 10.2898 99.6251 12.5377 98.701 15.5427C98.3559 16.6647 98.2997 17.4018 98.2997 20.8035C98.2997 24.2017 98.3561 24.9429 98.7 26.0608C99.4571 28.523 101.269 30.4119 103.852 31.4322C104.893 31.8436 105.3 31.8738 109.944 31.8856C112.68 31.8926 115.435 31.83 116.064 31.7464L117.209 31.5949V32.633C117.209 33.9118 116.633 35.1794 115.839 35.6507C115.293 35.9742 113.249 35.9962 83.7889 35.9962H52.3215V38.8948V41.7934L83.2224 41.7894C102.543 41.787 114.646 41.7112 115.517 41.5873C118.626 41.1453 121.168 39.0885 122.303 36.0961C122.656 35.1642 122.682 34.4547 122.682 25.6012V16.1058L122.045 14.7547C120.76 12.0296 118.369 10.2205 115.517 9.81505C113.866 9.58036 107.043 9.58656 105.431 9.82405ZM30.0196 15.7012C30.3321 15.8633 30.7754 16.3013 31.0049 16.6743C31.3862 17.294 31.4222 17.6487 31.4222 20.7871C31.4222 24.6131 31.296 25.1188 30.1685 25.8091C29.5829 26.1677 29.1408 26.1995 24.7116 26.2001L19.8918 26.2009L19.191 25.583C18.2105 24.7184 18.04 23.879 18.1192 20.3088C18.1932 16.9666 18.3276 16.5398 19.5403 15.7972C20.1227 15.4405 20.5684 15.4075 24.8141 15.4069C28.5143 15.4063 29.5664 15.4657 30.0196 15.7012ZM58.6302 15.7972C59.843 16.5398 59.9773 16.9666 60.0514 20.3088C60.1306 23.879 59.96 24.7184 58.9795 25.583L58.2787 26.2009L53.459 26.2001C46.6592 26.1991 46.7483 26.2711 46.7483 20.7871C46.7483 17.6513 46.7846 17.2936 47.1645 16.6759C47.9059 15.4711 48.1412 15.4229 53.3167 15.4149C57.61 15.4081 58.0462 15.4395 58.6302 15.7972ZM87.1722 15.7158C88.3899 16.3481 88.5452 16.9186 88.546 20.7636C88.5468 24.6153 88.422 25.1178 87.293 25.8091C86.7074 26.1677 86.2654 26.1995 81.8361 26.2001L77.0164 26.2009L76.3155 25.583C75.3351 24.7184 75.1645 23.879 75.2437 20.3088C75.3178 16.9666 75.4521 16.5398 76.6649 15.7972C77.2472 15.4405 77.6929 15.4075 81.9386 15.4069C85.7373 15.4063 86.6839 15.4621 87.1722 15.7158ZM116.124 16.0059C117.063 16.8766 117.209 17.5249 117.209 20.8339C117.209 23.4562 117.154 23.9884 116.815 24.6928C116.113 26.1489 115.895 26.2011 110.51 26.2001C105.177 26.1993 104.857 26.1256 104.205 24.745C103.697 23.6701 103.721 17.7838 104.237 16.8179C104.955 15.4725 105.364 15.387 110.774 15.4499L115.585 15.5061L116.124 16.0059ZM152.831 15.703C153.145 15.8663 153.589 16.2625 153.816 16.5834C154.2 17.1241 154.23 17.4404 154.23 20.8873V24.6075L153.549 25.3543L152.868 26.101L147.985 26.1607C142.555 26.2273 142.227 26.1657 141.483 24.9417C141.138 24.3724 141.095 23.9208 141.094 20.8435C141.093 16.9918 141.218 16.4892 142.347 15.798C142.931 15.4403 143.373 15.4075 147.622 15.4069C151.335 15.4063 152.373 15.4653 152.831 15.703Z" fill="white"/>
<path fill-rule="evenodd" clip-rule="evenodd" d="M127 29.2554V32.3899H130H133V29.2554V26.1208H130H127V29.2554Z" fill="#F50203"/>
</svg>
