<svg width="52" height="48" viewBox="0 0 52 48" fill="none" xmlns="http://www.w3.org/2000/svg">
<path d="M51.8148 35.1777C51.7964 31.7213 51.7964 28.2648 51.7048 24.8083C51.668 23.3217 51.5578 21.8165 51.2273 20.3671C50.6948 18.0255 49.446 16.1115 47.0771 15.331C44.4695 14.4948 42.1373 15.2753 40.0254 16.9292C39.9152 17.0035 39.8235 17.1893 39.8235 17.3194C39.8052 18.9547 39.8235 20.5714 39.8235 22.1882C40.5947 22.0395 41.2926 21.835 41.9903 21.7608C42.927 21.6864 43.8084 21.8722 44.3409 22.7642C44.8735 23.6563 45.2223 24.6411 45.2223 25.6817C45.2591 29.6585 45.2591 33.6353 45.2223 37.6121C45.204 39.359 44.2858 40.5297 42.6882 41.1057C42.5596 41.1614 42.3761 41.3472 42.3577 41.4773C42.3577 43.4472 42.3761 45.3984 42.3761 47.3681C42.3761 47.7027 42.5045 47.8327 42.8719 47.8514C46.3058 47.8886 49.7397 45.4913 50.9334 42.1834C51.7231 39.9165 51.8332 37.5377 51.8148 35.1777ZM44.9102 7.00581C46.5813 6.81998 48.2707 6.61557 49.9418 6.44832C50.2173 6.41115 50.3641 6.35541 50.3641 6.0395C50.3641 4.06968 50.3641 2.0813 50.3641 0C47.6279 0.315912 45.0021 0.613241 42.3761 0.929151C39.3643 1.28223 36.4262 1.67247 33.4146 1.98838C33.3228 3.25203 33.2125 4.55285 33.1392 5.83507C33.0841 6.63415 33.0657 7.45179 33.0106 8.28804C34.6818 8.10221 36.2976 7.93497 37.8952 7.76772C40.2275 7.52613 42.5596 7.26597 44.9102 7.00581ZM38.2259 27.2613C38.2994 23.8606 38.3911 20.4785 38.4829 17.0778C38.538 15.1452 38.6115 13.194 38.6666 11.2613C38.685 10.6852 38.6666 10.1092 38.6666 9.51453C38.3911 9.51453 38.2075 9.51453 38.0055 9.51453C36.518 9.58886 35.0122 9.70035 33.5248 9.73752C32.9923 9.7561 32.882 9.96051 32.8637 10.4251C32.8453 11.4843 32.7902 12.5621 32.7535 13.6214C32.6067 17.8212 32.4413 22.0395 32.2944 26.2392C32.276 26.7967 32.2944 27.3542 32.2944 28.0233C34.2041 27.9675 36.0222 27.8931 37.8401 27.8374C38.2443 27.8187 38.2259 27.5587 38.2259 27.2613ZM40.558 41.0127C39.1257 40.8456 38.3911 39.4519 38.3359 38.0952C38.281 36.4414 38.2443 34.7875 38.2075 33.1522C38.2075 32.7247 38.0973 32.5761 37.6382 32.5761C36.0406 32.6318 34.443 32.669 32.8453 32.669C32.423 32.669 32.3311 32.8548 32.3495 33.2265C32.3862 34.2672 32.3679 35.3263 32.3862 36.367C32.4413 37.9838 32.3862 39.6005 32.625 41.1801C32.9372 43.2057 33.9104 44.9895 35.6183 46.1789C37.1241 47.2195 38.9052 47.6283 40.8335 47.8699C40.8335 45.6399 40.8335 43.4844 40.8152 41.3287C40.8703 41.2358 40.6866 41.0314 40.558 41.0127ZM10.0929 37.259C10.1113 36.6086 9.85417 36.4042 9.21144 36.3855C6.89764 36.2741 6.21818 35.5493 6.16309 33.1893C6.12637 31.4054 6.16309 29.6213 6.12637 27.8187C6.108 27.0569 6.03456 26.2951 5.97946 25.5331H0.837666C0.837666 28.302 0.709121 30.978 0.874393 33.6353C1.2233 39.0801 4.08801 42.1464 9.138 42.7596C9.85417 42.8525 10.1113 42.6482 10.0929 41.9234C10.0745 40.3623 10.0745 38.82 10.0929 37.259ZM0.819303 23.4705H5.99782C5.99782 21.9094 5.97946 20.4228 5.99782 18.9547C6.05291 15.9257 6.89764 14.9779 9.85417 14.6249C9.90926 14.6249 9.96436 14.5505 10.0745 14.4762V9.51453C6.56709 9.10569 2.71075 11.6144 1.44366 15.0709C0.433669 17.8212 0.966212 20.6458 0.819303 23.4705ZM11.1763 48H17.0343V3.58653C15.0143 3.80952 13.1045 4.01393 11.1763 4.21834V48ZM22.1027 17.0964C22.121 18.2114 22.121 19.3263 22.121 20.4413C22.121 21.2033 22.121 21.9466 22.121 22.6899H28.0156C28.0156 20.1254 28.1259 17.6911 27.9791 15.2753C27.8505 13.1196 26.8221 11.3542 24.9857 10.1463C23.0943 8.91986 20.9825 8.73403 18.8155 8.91986C18.6136 8.93844 18.283 9.25435 18.283 9.45878C18.2463 11.0383 18.2646 12.6179 18.2646 14.2346C18.7237 14.2532 19.0543 14.2718 19.3665 14.2904C21.3497 14.3647 22.0659 15.108 22.1027 17.0964ZM28.0707 24.8083C26.3631 24.8083 24.7654 24.8455 23.1678 24.7898C22.4332 24.7713 22.1762 25.0313 22.1945 25.7933C22.2129 27.9117 22.1578 30.0489 22.1578 32.1672C22.1578 34.8804 21.1294 36.3485 18.5769 36.6086C18.4851 36.6086 18.4116 36.7015 18.3381 36.7387V42.295C23.388 42.5738 26.6017 39.8606 27.63 35.921C28.5849 32.2601 27.8505 28.5435 28.0707 24.8083Z" fill="white"/>
</svg>
