<svg width="249" height="96" viewBox="0 0 249 96" fill="none" xmlns="http://www.w3.org/2000/svg">
<path d="M43.0385 87.3713C42.1585 87.3713 41.4085 87.2513 40.7885 87.0113C40.1752 86.7713 39.7052 86.4246 39.3785 85.9713C39.0518 85.5113 38.8885 84.958 38.8885 84.3113C38.8885 83.6513 39.0518 83.0946 39.3785 82.6413C39.7052 82.188 40.1752 81.8413 40.7885 81.6013C41.4085 81.3613 42.1585 81.2413 43.0385 81.2413C43.0518 81.2413 43.0818 81.2413 43.1285 81.2413C43.1818 81.2413 43.2318 81.2413 43.2785 81.2413C43.3318 81.2413 43.3618 81.2413 43.3685 81.2413C44.2418 81.2413 44.9852 81.3613 45.5985 81.6013C46.2118 81.8413 46.6785 82.1913 46.9985 82.6513C47.3185 83.1046 47.4785 83.658 47.4785 84.3113C47.4785 84.9513 47.3185 85.5013 46.9985 85.9613C46.6852 86.4213 46.2252 86.7713 45.6185 87.0113C45.0185 87.2513 44.2852 87.3713 43.4185 87.3713C43.4052 87.3713 43.3685 87.3713 43.3085 87.3713C43.2552 87.3713 43.1985 87.3713 43.1385 87.3713C43.0852 87.3713 43.0518 87.3713 43.0385 87.3713ZM43.1685 86.3613C43.1818 86.3613 43.2018 86.3613 43.2285 86.3613C43.2552 86.3613 43.2718 86.3613 43.2785 86.3613C43.9252 86.3546 44.4652 86.2746 44.8985 86.1213C45.3385 85.968 45.6685 85.7413 45.8885 85.4413C46.1152 85.1346 46.2285 84.7546 46.2285 84.3013C46.2285 83.848 46.1152 83.4713 45.8885 83.1713C45.6618 82.8713 45.3318 82.6446 44.8985 82.4913C44.4652 82.338 43.9318 82.2613 43.2985 82.2613C43.2918 82.2613 43.2718 82.2613 43.2385 82.2613C43.2052 82.2613 43.1818 82.2613 43.1685 82.2613C42.5085 82.2613 41.9518 82.338 41.4985 82.4913C41.0518 82.638 40.7152 82.8646 40.4885 83.1713C40.2685 83.4713 40.1585 83.8513 40.1585 84.3113C40.1585 84.7713 40.2752 85.1546 40.5085 85.4613C40.7485 85.7613 41.0918 85.988 41.5385 86.1413C41.9852 86.288 42.5285 86.3613 43.1685 86.3613ZM42.5885 88.1013V80.5413H43.7885V88.1013H42.5885ZM51.6637 87.8913C51.2304 87.8913 50.8337 87.7913 50.4737 87.5913C50.1204 87.3913 49.8371 87.0913 49.6237 86.6913C49.4171 86.2846 49.3137 85.7713 49.3137 85.1513C49.3137 84.5246 49.4137 84.0113 49.6137 83.6113C49.8204 83.2113 50.1004 82.9146 50.4537 82.7213C50.8071 82.5213 51.2104 82.4213 51.6637 82.4213C52.1904 82.4213 52.6537 82.5346 53.0537 82.7613C53.4604 82.988 53.7804 83.3046 54.0137 83.7113C54.2537 84.118 54.3737 84.598 54.3737 85.1513C54.3737 85.7046 54.2537 86.188 54.0137 86.6013C53.7804 87.008 53.4604 87.3246 53.0537 87.5513C52.6537 87.778 52.1904 87.8913 51.6637 87.8913ZM48.7037 89.7613V82.4813H49.8937V83.7413L49.8537 85.1613L49.9537 86.5813V89.7613H48.7037ZM51.5237 86.8213C51.8237 86.8213 52.0904 86.7546 52.3237 86.6213C52.5637 86.488 52.7537 86.2946 52.8937 86.0413C53.0337 85.788 53.1037 85.4913 53.1037 85.1513C53.1037 84.8046 53.0337 84.508 52.8937 84.2613C52.7537 84.008 52.5637 83.8146 52.3237 83.6813C52.0904 83.548 51.8237 83.4813 51.5237 83.4813C51.2237 83.4813 50.9537 83.548 50.7137 83.6813C50.4737 83.8146 50.2837 84.008 50.1437 84.2613C50.0037 84.508 49.9337 84.8046 49.9337 85.1513C49.9337 85.4913 50.0037 85.788 50.1437 86.0413C50.2837 86.2946 50.4737 86.488 50.7137 86.6213C50.9537 86.7546 51.2237 86.8213 51.5237 86.8213ZM58.7894 87.8213V86.7413L58.7194 86.5113V84.6213C58.7194 84.2546 58.6094 83.9713 58.3894 83.7713C58.1694 83.5646 57.8361 83.4613 57.3894 83.4613C57.0894 83.4613 56.7928 83.508 56.4994 83.6013C56.2128 83.6946 55.9694 83.8246 55.7694 83.9913L55.2794 83.0813C55.5661 82.8613 55.9061 82.698 56.2994 82.5913C56.6994 82.478 57.1128 82.4213 57.5394 82.4213C58.3128 82.4213 58.9094 82.608 59.3294 82.9813C59.7561 83.348 59.9694 83.918 59.9694 84.6913V87.8213H58.7894ZM57.1094 87.8913C56.7094 87.8913 56.3594 87.8246 56.0594 87.6913C55.7594 87.5513 55.5261 87.3613 55.3594 87.1213C55.1994 86.8746 55.1194 86.598 55.1194 86.2913C55.1194 85.9913 55.1894 85.7213 55.3294 85.4813C55.4761 85.2413 55.7128 85.0513 56.0394 84.9113C56.3661 84.7713 56.7994 84.7013 57.3394 84.7013H58.8894V85.5313H57.4294C57.0028 85.5313 56.7161 85.6013 56.5694 85.7413C56.4228 85.8746 56.3494 86.0413 56.3494 86.2413C56.3494 86.468 56.4394 86.648 56.6194 86.7813C56.7994 86.9146 57.0494 86.9813 57.3694 86.9813C57.6761 86.9813 57.9494 86.9113 58.1894 86.7713C58.4361 86.6313 58.6128 86.4246 58.7194 86.1513L58.9294 86.9013C58.8094 87.2146 58.5928 87.458 58.2794 87.6313C57.9728 87.8046 57.5828 87.8913 57.1094 87.8913ZM61.5162 87.8213V82.4813H62.7662V84.6513H65.4562V82.4813H66.7062V87.8213H65.4562V85.7113H62.7662V87.8213H61.5162ZM71.9715 86.7613L71.7015 87.0613V82.4813H72.9515V87.0613L72.6515 86.7613H75.2915L75.0015 87.0613V82.4813H76.2515V87.8213H68.3815V82.4813H69.6315V87.0613L69.3415 86.7613H71.9715ZM77.9323 87.8213V82.4813H79.1823V86.0013L82.1323 82.4813H83.2723V87.8213H82.0223V84.3013L79.0823 87.8213H77.9323ZM86.5754 87.9113C87.0687 87.9113 87.5054 87.8413 87.8854 87.7013C88.272 87.5613 88.5754 87.368 88.7954 87.1213C89.0154 86.868 89.1254 86.578 89.1254 86.2513C89.1254 85.8446 88.9554 85.5246 88.6154 85.2913C88.2754 85.0513 87.8087 84.9313 87.2154 84.9313L87.1754 85.2013C87.522 85.2013 87.8287 85.1446 88.0954 85.0313C88.3687 84.918 88.582 84.7613 88.7354 84.5613C88.8954 84.3546 88.9754 84.1246 88.9754 83.8713C88.9754 83.5646 88.8654 83.298 88.6454 83.0713C88.4254 82.8446 88.1254 82.6713 87.7454 82.5513C87.3654 82.4313 86.932 82.3813 86.4454 82.4013C86.1254 82.408 85.802 82.4546 85.4754 82.5413C85.1554 82.6213 84.8254 82.738 84.4854 82.8913L84.8054 83.8113C85.0987 83.6846 85.3854 83.588 85.6654 83.5213C85.952 83.4546 86.2287 83.4213 86.4954 83.4213C86.7487 83.4213 86.9654 83.448 87.1454 83.5013C87.3254 83.548 87.462 83.6213 87.5554 83.7213C87.6554 83.8146 87.7054 83.9246 87.7054 84.0513C87.7054 84.178 87.6654 84.288 87.5854 84.3813C87.5054 84.4746 87.3887 84.5446 87.2354 84.5913C87.0887 84.638 86.9087 84.6613 86.6954 84.6613H85.7654V85.5013H86.7954C87.1354 85.5013 87.3954 85.558 87.5754 85.6713C87.762 85.778 87.8554 85.938 87.8554 86.1513C87.8554 86.298 87.7987 86.428 87.6854 86.5413C87.5787 86.6546 87.4254 86.7413 87.2254 86.8013C87.0254 86.8546 86.7854 86.8813 86.5054 86.8813C86.1787 86.8813 85.852 86.8413 85.5254 86.7613C85.1987 86.6813 84.9054 86.568 84.6454 86.4213L84.2954 87.3513C84.6154 87.5313 84.972 87.6713 85.3654 87.7713C85.7654 87.8646 86.1687 87.9113 86.5754 87.9113ZM93.6527 87.8213V86.7413L93.5827 86.5113V84.6213C93.5827 84.2546 93.4727 83.9713 93.2527 83.7713C93.0327 83.5646 92.6994 83.4613 92.2527 83.4613C91.9527 83.4613 91.6561 83.508 91.3627 83.6013C91.0761 83.6946 90.8327 83.8246 90.6327 83.9913L90.1427 83.0813C90.4294 82.8613 90.7694 82.698 91.1627 82.5913C91.5627 82.478 91.9761 82.4213 92.4027 82.4213C93.1761 82.4213 93.7727 82.608 94.1927 82.9813C94.6194 83.348 94.8327 83.918 94.8327 84.6913V87.8213H93.6527ZM91.9727 87.8913C91.5727 87.8913 91.2227 87.8246 90.9227 87.6913C90.6227 87.5513 90.3894 87.3613 90.2227 87.1213C90.0627 86.8746 89.9827 86.598 89.9827 86.2913C89.9827 85.9913 90.0527 85.7213 90.1927 85.4813C90.3394 85.2413 90.5761 85.0513 90.9027 84.9113C91.2294 84.7713 91.6627 84.7013 92.2027 84.7013H93.7527V85.5313H92.2927C91.8661 85.5313 91.5794 85.6013 91.4327 85.7413C91.2861 85.8746 91.2127 86.0413 91.2127 86.2413C91.2127 86.468 91.3027 86.648 91.4827 86.7813C91.6627 86.9146 91.9127 86.9813 92.2327 86.9813C92.5394 86.9813 92.8127 86.9113 93.0527 86.7713C93.2994 86.6313 93.4761 86.4246 93.5827 86.1513L93.7927 86.9013C93.6727 87.2146 93.4561 87.458 93.1427 87.6313C92.8361 87.8046 92.4461 87.8913 91.9727 87.8913ZM99.1432 87.8213V82.4813H100.453L102.603 86.2713H102.083L104.343 82.4813H105.513L105.523 87.8213H104.393V83.8213L104.593 83.9513L102.593 87.2613H102.053L100.043 83.8613L100.283 83.8013V87.8213H99.1432ZM107.68 89.8313C107.42 89.8313 107.16 89.788 106.9 89.7013C106.64 89.6146 106.423 89.4946 106.25 89.3413L106.75 88.4213C106.876 88.5346 107.02 88.6246 107.18 88.6913C107.34 88.758 107.503 88.7913 107.67 88.7913C107.896 88.7913 108.08 88.7346 108.22 88.6213C108.36 88.508 108.49 88.318 108.61 88.0513L108.92 87.3513L109.02 87.2013L111.04 82.4813H112.24L109.74 88.2513C109.573 88.6513 109.386 88.968 109.18 89.2013C108.98 89.4346 108.753 89.598 108.5 89.6913C108.253 89.7846 107.98 89.8313 107.68 89.8313ZM108.78 88.0113L106.37 82.4813H107.67L109.63 87.0913L108.78 88.0113ZM114.671 87.9113C115.164 87.9113 115.601 87.8413 115.981 87.7013C116.368 87.5613 116.671 87.368 116.891 87.1213C117.111 86.868 117.221 86.578 117.221 86.2513C117.221 85.8446 117.051 85.5246 116.711 85.2913C116.371 85.0513 115.904 84.9313 115.311 84.9313L115.271 85.2013C115.618 85.2013 115.924 85.1446 116.191 85.0313C116.464 84.918 116.678 84.7613 116.831 84.5613C116.991 84.3546 117.071 84.1246 117.071 83.8713C117.071 83.5646 116.961 83.298 116.741 83.0713C116.521 82.8446 116.221 82.6713 115.841 82.5513C115.461 82.4313 115.028 82.3813 114.541 82.4013C114.221 82.408 113.898 82.4546 113.571 82.5413C113.251 82.6213 112.921 82.738 112.581 82.8913L112.901 83.8113C113.194 83.6846 113.481 83.588 113.761 83.5213C114.048 83.4546 114.324 83.4213 114.591 83.4213C114.844 83.4213 115.061 83.448 115.241 83.5013C115.421 83.548 115.558 83.6213 115.651 83.7213C115.751 83.8146 115.801 83.9246 115.801 84.0513C115.801 84.178 115.761 84.288 115.681 84.3813C115.601 84.4746 115.484 84.5446 115.331 84.5913C115.184 84.638 115.004 84.6613 114.791 84.6613H113.861V85.5013H114.891C115.231 85.5013 115.491 85.558 115.671 85.6713C115.858 85.778 115.951 85.938 115.951 86.1513C115.951 86.298 115.894 86.428 115.781 86.5413C115.674 86.6546 115.521 86.7413 115.321 86.8013C115.121 86.8546 114.881 86.8813 114.601 86.8813C114.274 86.8813 113.948 86.8413 113.621 86.7613C113.294 86.6813 113.001 86.568 112.741 86.4213L112.391 87.3513C112.711 87.5313 113.068 87.6713 113.461 87.7713C113.861 87.8646 114.264 87.9113 114.671 87.9113ZM123.898 87.8213V82.4813H125.148V87.8213H123.898ZM121.108 84.2413C121.795 84.2413 122.315 84.3946 122.668 84.7013C123.028 85.008 123.208 85.4413 123.208 86.0013C123.208 86.5813 123.008 87.0346 122.608 87.3613C122.215 87.6813 121.655 87.838 120.928 87.8313L118.508 87.8213V82.4813H119.758V84.2313L121.108 84.2413ZM120.818 86.9113C121.185 86.918 121.465 86.8413 121.658 86.6813C121.852 86.5213 121.948 86.288 121.948 85.9813C121.948 85.6746 121.852 85.4546 121.658 85.3213C121.472 85.1813 121.192 85.108 120.818 85.1013L119.758 85.0913V86.9013L120.818 86.9113ZM130.659 87.8213L128.729 85.2613L129.749 84.6313L132.129 87.8213H130.659ZM126.829 87.8213V82.4813H128.079V87.8213H126.829ZM127.709 85.6813V84.6413H129.519V85.6813H127.709ZM129.869 85.3013L128.699 85.1613L130.659 82.4813H131.999L129.869 85.3013ZM136.153 87.8213V86.7413L136.083 86.5113V84.6213C136.083 84.2546 135.973 83.9713 135.753 83.7713C135.533 83.5646 135.199 83.4613 134.753 83.4613C134.453 83.4613 134.156 83.508 133.863 83.6013C133.576 83.6946 133.333 83.8246 133.133 83.9913L132.643 83.0813C132.929 82.8613 133.269 82.698 133.663 82.5913C134.063 82.478 134.476 82.4213 134.903 82.4213C135.676 82.4213 136.273 82.608 136.693 82.9813C137.119 83.348 137.333 83.918 137.333 84.6913V87.8213H136.153ZM134.473 87.8913C134.073 87.8913 133.723 87.8246 133.423 87.6913C133.123 87.5513 132.889 87.3613 132.723 87.1213C132.563 86.8746 132.483 86.598 132.483 86.2913C132.483 85.9913 132.553 85.7213 132.693 85.4813C132.839 85.2413 133.076 85.0513 133.403 84.9113C133.729 84.7713 134.163 84.7013 134.703 84.7013H136.253V85.5313H134.793C134.366 85.5313 134.079 85.6013 133.933 85.7413C133.786 85.8746 133.713 86.0413 133.713 86.2413C133.713 86.468 133.803 86.648 133.983 86.7813C134.163 86.9146 134.413 86.9813 134.733 86.9813C135.039 86.9813 135.313 86.9113 135.553 86.7713C135.799 86.6313 135.976 86.4246 136.083 86.1513L136.293 86.9013C136.173 87.2146 135.956 87.458 135.643 87.6313C135.336 87.8046 134.946 87.8913 134.473 87.8913ZM138.1 87.8113L138.16 86.7613C138.206 86.768 138.25 86.7746 138.29 86.7813C138.33 86.788 138.366 86.7913 138.4 86.7913C138.606 86.7913 138.766 86.728 138.88 86.6013C138.993 86.4746 139.076 86.3046 139.13 86.0913C139.19 85.8713 139.23 85.628 139.25 85.3613C139.276 85.088 139.296 84.8146 139.31 84.5413L139.4 82.4813H143.72V87.8213H142.47V83.2013L142.76 83.5413H140.22L140.49 83.1913L140.42 84.6013C140.4 85.0746 140.36 85.5146 140.3 85.9213C140.246 86.3213 140.16 86.6713 140.04 86.9713C139.926 87.2713 139.766 87.5046 139.56 87.6713C139.36 87.838 139.103 87.9213 138.79 87.9213C138.69 87.9213 138.58 87.9113 138.46 87.8913C138.346 87.8713 138.226 87.8446 138.1 87.8113ZM148.083 84.2413C148.77 84.2413 149.293 84.3946 149.653 84.7013C150.013 85.008 150.193 85.4413 150.193 86.0013C150.193 86.5813 149.993 87.0346 149.593 87.3613C149.193 87.6813 148.63 87.838 147.903 87.8313L145.403 87.8213V82.4813H146.653V84.2313L148.083 84.2413ZM147.793 86.9113C148.16 86.918 148.44 86.8413 148.633 86.6813C148.826 86.5213 148.923 86.288 148.923 85.9813C148.923 85.6746 148.826 85.4546 148.633 85.3213C148.446 85.1813 148.166 85.108 147.793 85.1013L146.653 85.0913V86.9013L147.793 86.9113ZM151.292 87.8213V82.4813H152.542V84.6513H155.232V82.4813H156.482V87.8213H155.232V85.7113H152.542V87.8213H151.292ZM160.537 87.8913C159.99 87.8913 159.504 87.7746 159.077 87.5413C158.65 87.3013 158.314 86.9746 158.067 86.5613C157.82 86.148 157.697 85.678 157.697 85.1513C157.697 84.618 157.82 84.148 158.067 83.7413C158.314 83.328 158.65 83.0046 159.077 82.7713C159.504 82.538 159.99 82.4213 160.537 82.4213C161.09 82.4213 161.58 82.538 162.007 82.7713C162.44 83.0046 162.777 83.3246 163.017 83.7313C163.264 84.138 163.387 84.6113 163.387 85.1513C163.387 85.678 163.264 86.148 163.017 86.5613C162.777 86.9746 162.44 87.3013 162.007 87.5413C161.58 87.7746 161.09 87.8913 160.537 87.8913ZM160.537 86.8213C160.844 86.8213 161.117 86.7546 161.357 86.6213C161.597 86.488 161.784 86.2946 161.917 86.0413C162.057 85.788 162.127 85.4913 162.127 85.1513C162.127 84.8046 162.057 84.508 161.917 84.2613C161.784 84.008 161.597 83.8146 161.357 83.6813C161.117 83.548 160.847 83.4813 160.547 83.4813C160.24 83.4813 159.967 83.548 159.727 83.6813C159.494 83.8146 159.307 84.008 159.167 84.2613C159.027 84.508 158.957 84.8046 158.957 85.1513C158.957 85.4913 159.027 85.788 159.167 86.0413C159.307 86.2946 159.494 86.488 159.727 86.6213C159.967 86.7546 160.237 86.8213 160.537 86.8213ZM164.622 87.8213V82.4813H165.872V86.0013L168.822 82.4813H169.962V87.8213H168.712V84.3013L165.772 87.8213H164.622ZM167.212 81.8513C166.678 81.8513 166.268 81.728 165.982 81.4813C165.695 81.228 165.548 80.8613 165.542 80.3813H166.372C166.378 80.6213 166.452 80.8113 166.592 80.9513C166.738 81.0913 166.942 81.1613 167.202 81.1613C167.455 81.1613 167.655 81.0913 167.802 80.9513C167.955 80.8113 168.035 80.6213 168.042 80.3813H168.892C168.885 80.8613 168.735 81.228 168.442 81.4813C168.155 81.728 167.745 81.8513 167.212 81.8513ZM176.837 87.8913C176.277 87.8913 175.777 87.7746 175.337 87.5413C174.904 87.3013 174.564 86.9746 174.317 86.5613C174.07 86.148 173.947 85.678 173.947 85.1513C173.947 84.618 174.07 84.148 174.317 83.7413C174.564 83.328 174.904 83.0046 175.337 82.7713C175.777 82.538 176.277 82.4213 176.837 82.4213C177.357 82.4213 177.814 82.528 178.207 82.7413C178.607 82.948 178.91 83.2546 179.117 83.6613L178.157 84.2213C177.997 83.968 177.8 83.7813 177.567 83.6613C177.34 83.5413 177.094 83.4813 176.827 83.4813C176.52 83.4813 176.244 83.548 175.997 83.6813C175.75 83.8146 175.557 84.008 175.417 84.2613C175.277 84.508 175.207 84.8046 175.207 85.1513C175.207 85.498 175.277 85.798 175.417 86.0513C175.557 86.298 175.75 86.488 175.997 86.6213C176.244 86.7546 176.52 86.8213 176.827 86.8213C177.094 86.8213 177.34 86.7613 177.567 86.6413C177.8 86.5213 177.997 86.3346 178.157 86.0813L179.117 86.6413C178.91 87.0413 178.607 87.3513 178.207 87.5713C177.814 87.7846 177.357 87.8913 176.837 87.8913ZM181.288 87.8213V83.2413L181.578 83.5413H179.408V82.4813H184.408V83.5413H182.248L182.538 83.2413V87.8213H181.288ZM185.805 89.8313C185.545 89.8313 185.285 89.788 185.025 89.7013C184.765 89.6146 184.548 89.4946 184.375 89.3413L184.875 88.4213C185.001 88.5346 185.145 88.6246 185.305 88.6913C185.465 88.758 185.628 88.7913 185.795 88.7913C186.021 88.7913 186.205 88.7346 186.345 88.6213C186.485 88.508 186.615 88.318 186.735 88.0513L187.045 87.3513L187.145 87.2013L189.165 82.4813H190.365L187.865 88.2513C187.698 88.6513 187.511 88.968 187.305 89.2013C187.105 89.4346 186.878 89.598 186.625 89.6913C186.378 89.7846 186.105 89.8313 185.805 89.8313ZM186.905 88.0113L184.495 82.4813H185.795L187.755 87.0913L186.905 88.0113ZM194.571 87.2413V83.5413H192.521L192.491 84.4013C192.477 84.708 192.457 85.0046 192.431 85.2913C192.404 85.5713 192.361 85.8313 192.301 86.0713C192.241 86.3046 192.154 86.498 192.041 86.6513C191.927 86.8046 191.777 86.9046 191.591 86.9513L190.351 86.7613C190.551 86.7613 190.711 86.698 190.831 86.5713C190.957 86.438 191.054 86.258 191.121 86.0313C191.194 85.798 191.247 85.5346 191.281 85.2413C191.314 84.9413 191.337 84.6313 191.351 84.3113L191.421 82.4813H195.821V87.2413H194.571ZM190.161 89.0113V86.7613H196.611V89.0113H195.441V87.8213H191.321V89.0113H190.161ZM197.727 87.8213V82.4813H198.977V86.0013L201.927 82.4813H203.067V87.8213H201.817V84.3013L198.877 87.8213H197.727ZM204.749 87.8213V82.4813H205.999V86.0013L208.949 82.4813H210.089V87.8213H208.839V84.3013L205.899 87.8213H204.749Z" fill="white"/>
<path fill-rule="evenodd" clip-rule="evenodd" d="M17.7349 0.422223C14.5656 1.43154 11.6662 3.89336 10.3459 6.69669C9.06806 9.40954 8.98799 10.8072 9.07436 28.8858L9.15529 45.8322H13.1591H17.1629L17.3059 28.1548C17.4395 11.6565 17.4838 10.4243 17.9717 9.67666C19.1025 7.94382 12.6523 8.06188 106.239 8.06188H192.044V4.0407V0.0195316L105.461 0.0387762C36.3615 0.0539992 18.6478 0.13155 17.7349 0.422223ZM200.051 4.03094V8.06188H213.788C228.959 8.06188 228.996 8.0659 230.072 9.83981C230.491 10.5297 230.65 11.292 230.651 12.6193L230.652 14.4478L229.865 14.2565C228.424 13.9058 216.839 13.7458 214.522 14.0445C210.017 14.6256 206.706 16.99 204.801 20.9871L203.912 22.854L203.825 29.4123C203.753 34.9204 203.815 36.2081 204.216 37.4546C205.629 41.8492 209.384 45.0147 213.971 45.6808C216.494 46.0473 225.92 46.0473 228.507 45.6808C233.694 44.9461 237.826 40.8988 238.669 35.7278C239.054 33.3714 239.023 12.0391 238.633 9.90989C237.925 6.05043 235.414 2.76858 231.886 1.09031L229.937 0.163145L214.994 0.0815736L200.051 0V4.03094ZM37.3324 14.1198C34.8778 14.4386 32.2618 15.7986 30.4947 17.6754C27.654 20.6921 27.0294 22.8934 27.0294 29.8911C27.0294 37.0827 27.7956 39.564 30.9366 42.5477C33.9091 45.3712 36.3174 45.9732 44.6176 45.968C51.5107 45.9634 53.4234 45.6906 55.9644 44.3495C58.3192 43.1067 59.9451 41.3733 61.1734 38.7951L62.0628 36.9281V29.8911V22.854L61.1794 20.9819C59.4083 17.2281 55.8097 14.6081 51.6935 14.075C49.3029 13.7653 39.8339 13.7949 37.3324 14.1198ZM78.4652 14.0902C74.6459 14.5834 70.9675 17.314 69.2676 20.9179L68.3545 22.854L68.275 41.452L68.1955 60.0499H72.2073H76.2191V52.692V45.3344L77.0056 45.5317C77.438 45.64 80.6894 45.7991 84.2307 45.885C93.7192 46.1151 96.3254 45.5447 99.4807 42.5477C102.622 39.564 103.388 37.0827 103.388 29.8911C103.388 22.8934 102.763 20.6921 99.9225 17.6754C98.0728 15.711 95.5761 14.4567 92.8063 14.1002C90.356 13.7849 80.8815 13.7783 78.4652 14.0902ZM119.41 14.1198C114.524 14.7543 110.347 18.8119 109.396 23.8479C109.023 25.822 109.023 33.9602 109.396 35.9343C110.349 40.9815 114.356 44.8829 119.403 45.6785C121.777 46.0528 131.521 46.0528 134.097 45.6788C138.119 45.0949 141.44 42.5974 143.251 38.7951L144.141 36.9281V29.8911V22.854L143.251 20.9871C141.4 17.1006 138.016 14.6239 133.816 14.0804C131.389 13.7665 121.933 13.792 119.41 14.1198ZM160.536 14.1155C155.995 14.7847 152.194 18.0146 150.866 22.3322C150.37 23.9444 150.29 25.0034 150.29 29.8911C150.29 34.7737 150.371 35.8387 150.865 37.4449C151.953 40.9826 154.556 43.6966 158.267 45.1626C159.763 45.7538 160.348 45.7971 167.02 45.8141C170.952 45.8241 174.909 45.7342 175.814 45.6142L177.458 45.3965V46.888C177.458 48.7254 176.632 50.5467 175.49 51.224C174.707 51.6887 171.769 51.7203 129.44 51.7203H84.2267V55.8851V60.0499L128.626 60.0441C156.387 60.0407 173.776 59.9318 175.027 59.7537C179.495 59.1187 183.148 56.1634 184.778 51.8639C185.286 50.5249 185.323 49.5055 185.323 36.7845V23.1413L184.408 21.1999C182.561 17.2844 179.126 14.685 175.027 14.1025C172.656 13.7653 162.852 13.7742 160.536 14.1155ZM52.1828 22.5599C52.6318 22.7929 53.2687 23.4222 53.5984 23.9581C54.1464 24.8485 54.1982 25.3581 54.1982 29.8675C54.1982 35.3648 54.0168 36.0915 52.3967 37.0832C51.5554 37.5985 50.9202 37.6442 44.5561 37.6451L37.631 37.6462L36.624 36.7584C35.2152 35.5161 34.9701 34.3101 35.084 29.1802C35.1903 24.3781 35.3834 23.7648 37.1259 22.6978C37.9627 22.1854 38.603 22.138 44.7034 22.1371C50.0199 22.1363 51.5316 22.2216 52.1828 22.5599ZM93.2914 22.6978C95.0339 23.7648 95.2269 24.3781 95.3333 29.1802C95.4471 34.3101 95.202 35.5161 93.7933 36.7584L92.7863 37.6462L85.8611 37.6451C76.091 37.6436 76.2191 37.747 76.2191 29.8675C76.2191 25.3618 76.2712 24.848 76.8171 23.9604C77.8824 22.2293 78.2204 22.1601 85.6567 22.1486C91.8254 22.1389 92.4523 22.1839 93.2914 22.6978ZM134.301 22.5809C136.051 23.4894 136.274 24.3091 136.275 29.8337C136.276 35.3679 136.097 36.09 134.475 37.0832C133.633 37.5985 132.998 37.6442 126.634 37.6451L119.709 37.6462L118.702 36.7584C117.293 35.5161 117.048 34.3101 117.162 29.1802C117.268 24.3781 117.461 23.7648 119.204 22.6978C120.041 22.1854 120.681 22.138 126.782 22.1371C132.24 22.1363 133.6 22.2164 134.301 22.5809ZM175.9 22.9977C177.249 24.2488 177.458 25.1803 177.458 29.9348C177.458 33.7026 177.38 34.4672 176.892 35.4794C175.884 37.5715 175.571 37.6465 167.834 37.6451C160.171 37.6439 159.712 37.5379 158.775 35.5543C158.045 34.0099 158.078 25.5522 158.82 24.1644C159.852 22.2313 160.44 22.1084 168.213 22.1989L175.126 22.2796L175.9 22.9977ZM228.642 22.5625C229.093 22.7972 229.73 23.3665 230.057 23.8275C230.608 24.6044 230.652 25.0588 230.652 30.0114V35.3567L229.673 36.4298L228.695 37.5026L221.679 37.5885C213.877 37.6841 213.405 37.5957 212.337 35.837C211.84 35.019 211.779 34.3701 211.778 29.9485C211.777 24.4143 211.956 23.6922 213.578 22.6989C214.417 22.1851 215.053 22.138 221.157 22.1371C226.492 22.1363 227.984 22.221 228.642 22.5625Z" fill="white"/>
<path fill-rule="evenodd" clip-rule="evenodd" d="M191.527 42.0352V46.539H195.837H200.148V42.0352V37.5315H195.837H191.527V42.0352Z" fill="#F50203"/>
</svg>
