<svg width="154" height="40" viewBox="0 0 154 40" fill="none" xmlns="http://www.w3.org/2000/svg">
<path fill-rule="evenodd" clip-rule="evenodd" d="M5.80602 0.281248C3.68732 0.953566 1.74911 2.59341 0.866413 4.46075C0.0122058 6.26782 -0.0413253 7.19881 0.016412 19.2412L0.0705171 30.5294H2.74708H5.42365L5.51924 18.7543C5.60852 7.76456 5.63816 6.94377 5.96432 6.44575C6.72026 5.29148 2.40831 5.37012 64.9711 5.37012H122.332V2.69156V0.0130103L64.4515 0.0258293C18.258 0.0359696 6.41627 0.0876272 5.80602 0.281248ZM127.685 2.68506V5.37012H136.868C147.011 5.37012 147.035 5.3728 147.755 6.55442C148.035 7.01399 148.141 7.52176 148.141 8.40588L148.142 9.62386L147.616 9.49643C146.653 9.26283 138.908 9.15625 137.359 9.35523C134.348 9.74228 132.134 11.3173 130.861 13.9798L130.266 15.2234L130.208 19.5919C130.16 23.2609 130.202 24.1187 130.47 24.949C131.414 27.8763 133.924 29.9849 136.991 30.4286C138.678 30.6727 144.979 30.6727 146.708 30.4286C150.176 29.9392 152.938 27.2432 153.502 23.7988C153.759 22.2291 153.738 8.0194 153.477 6.60111C153.004 4.03027 151.326 1.84418 148.967 0.72627L147.664 0.108673L137.675 0.0543372L127.685 0V2.68506ZM18.907 9.40536C17.2661 9.61773 15.5174 10.5237 14.336 11.7738C12.437 13.7833 12.0195 15.2496 12.0195 19.9108C12.0195 24.7012 12.5317 26.3541 14.6314 28.3416C16.6186 30.2223 18.2285 30.6233 23.7772 30.6199C28.3853 30.6168 29.664 30.4351 31.3626 29.5418C32.9368 28.7139 34.0237 27.5593 34.8448 25.8419L35.4394 24.5983V19.9108V15.2234L34.8489 13.9763C33.6649 11.4759 31.2592 9.73061 28.5075 9.37551C26.9094 9.16927 20.5793 9.18897 18.907 9.40536ZM46.4046 9.38566C43.8513 9.71416 41.3923 11.5331 40.2559 13.9337L39.6455 15.2234L39.5923 27.6117L39.5392 40H42.2211H44.903V35.0988V30.1978L45.4288 30.3293C45.7178 30.4014 47.8914 30.5074 50.2588 30.5646C56.6019 30.7179 58.3441 30.3379 60.4535 28.3416C62.5532 26.3541 63.0654 24.7012 63.0654 19.9108C63.0654 15.2496 62.6479 13.7833 60.7488 11.7738C59.5123 10.4653 57.8432 9.62979 55.9916 9.39235C54.3536 9.18228 48.0199 9.17788 46.4046 9.38566ZM73.7766 9.40536C70.5099 9.828 67.7175 12.5309 67.0818 15.8854C66.8325 17.2003 66.8325 22.6213 67.0818 23.9363C67.7188 27.2983 70.3975 29.8971 73.7717 30.427C75.3587 30.6763 81.8723 30.6763 83.5949 30.4272C86.2831 30.0383 88.5033 28.3747 89.7145 25.8419L90.309 24.5983V19.9108V15.2234L89.7145 13.9798C88.4765 11.3909 86.2148 9.74114 83.4071 9.37915C81.7844 9.17003 75.4629 9.18706 73.7766 9.40536ZM101.269 9.40249C98.2336 9.84828 95.6926 11.9997 94.8049 14.8757C94.4734 15.9496 94.4195 16.6551 94.4195 19.9108C94.4195 23.1632 94.4736 23.8726 94.8039 24.9425C95.5312 27.2991 97.2714 29.1069 99.7525 30.0834C100.752 30.4772 101.144 30.5061 105.604 30.5173C108.232 30.524 110.878 30.4642 111.483 30.3842L112.582 30.2392V31.2327C112.582 32.4566 112.029 33.6698 111.266 34.121C110.742 34.4305 108.779 34.4516 80.4815 34.4516H50.2561V37.2258V40L79.9373 39.9962C98.4957 39.9939 110.12 39.9214 110.957 39.8027C113.944 39.3797 116.385 37.4112 117.475 34.5472C117.815 33.6553 117.839 32.9763 117.839 24.5027V15.4147L117.227 14.1215C115.993 11.5134 113.696 9.78189 110.957 9.39388C109.372 9.16927 102.818 9.1752 101.269 9.40249ZM28.8346 15.0275C29.1348 15.1826 29.5605 15.6018 29.781 15.9588C30.1473 16.5519 30.1819 16.8913 30.1819 19.8952C30.1819 23.5569 30.0607 24.041 28.9776 24.7016C28.4152 25.0449 27.9905 25.0753 23.7361 25.0759L19.1066 25.0766L18.4335 24.4852C17.4917 23.6578 17.3279 22.8544 17.404 19.4373C17.4751 16.2385 17.6041 15.8301 18.769 15.1193C19.3284 14.778 19.7565 14.7464 23.8346 14.7458C27.3887 14.7453 28.3993 14.8021 28.8346 15.0275ZM56.3159 15.1193C57.4808 15.8301 57.6098 16.2385 57.6809 19.4373C57.757 22.8544 57.5932 23.6578 56.6514 24.4852L55.9782 25.0766L51.3487 25.0759C44.8173 25.0749 44.903 25.1438 44.903 19.8952C44.903 16.8938 44.9378 16.5516 45.3028 15.9604C46.0149 14.8072 46.2409 14.7611 51.212 14.7535C55.3359 14.747 55.7549 14.777 56.3159 15.1193ZM83.7312 15.0414C84.9008 15.6466 85.05 16.1926 85.0507 19.8726C85.0515 23.559 84.9316 24.04 83.8472 24.7016C83.2848 25.0449 82.8601 25.0753 78.6057 25.0759L73.9762 25.0766L73.3031 24.4852C72.3613 23.6578 72.1975 22.8544 72.2736 19.4373C72.3447 16.2385 72.4737 15.8301 73.6386 15.1193C74.198 14.778 74.6261 14.7464 78.7042 14.7458C82.3529 14.7453 83.2622 14.7986 83.7312 15.0414ZM111.54 15.319C112.442 16.1524 112.582 16.7729 112.582 19.9399C112.582 22.4497 112.53 22.959 112.204 23.6333C111.529 25.0269 111.32 25.0768 106.148 25.0759C101.025 25.0751 100.718 25.0045 100.092 23.6832C99.6042 22.6544 99.6264 17.0207 100.122 16.0962C100.812 14.8086 101.205 14.7267 106.401 14.787L111.022 14.8407L111.54 15.319ZM146.798 15.0292C147.1 15.1855 147.526 15.5647 147.745 15.8718C148.113 16.3893 148.142 16.692 148.142 19.991V23.5516L147.488 24.2664L146.834 24.981L142.143 25.0382C136.928 25.1019 136.612 25.043 135.899 23.8715C135.567 23.3266 135.525 22.8944 135.525 19.9491C135.524 16.2627 135.644 15.7817 136.728 15.1201C137.289 14.7778 137.714 14.7464 141.795 14.7458C145.361 14.7453 146.359 14.8017 146.798 15.0292Z" fill="white"/>
<rect x="122.105" y="24.3652" width="5.26316" height="5.26316" fill="#F50000"/>
</svg>
